<svg version="1.1" id="Layer_1" xmlns="http://www.w3.org/2000/svg" xmlns:xlink="http://www.w3.org/1999/xlink" x="0px" y="0px"
	 width="100%" viewBox="0 0 544 544" enable-background="new 0 0 544 544" xml:space="preserve">
<path fill="#F8F8F8" opacity="1.000000" stroke="none" 
	d="
M286.000000,545.000000 
	C190.688446,545.000000 95.876877,545.000000 1.032660,545.000000 
	C1.032660,363.730072 1.032660,182.460144 1.032660,1.095111 
	C182.228241,1.095111 363.456573,1.095111 544.842407,1.095111 
	C544.842407,182.333221 544.842407,363.666595 544.842407,545.000000 
	C458.793427,545.000000 372.646698,545.000000 286.000000,545.000000 
M310.851562,335.568085 
	C306.272888,331.951080 301.774384,328.224640 297.070312,324.778809 
	C295.507019,323.633606 293.415985,323.208832 291.054077,322.159210 
	C290.403900,321.719360 289.753723,321.279480 289.043152,320.159149 
	C287.141815,318.880829 285.390411,317.238373 283.314667,316.383606 
	C270.496582,311.105499 257.665863,305.846832 244.719193,300.895935 
	C234.621048,297.034332 234.614761,297.236938 234.612732,286.440247 
	C234.608505,263.823425 234.521515,241.206619 234.582794,218.176315 
	C234.582794,218.176315 234.792862,217.802261 235.582840,217.730118 
	C238.251999,217.048920 240.914795,215.808533 243.591339,215.778152 
	C259.752960,215.594604 275.917694,215.669250 292.081360,215.697144 
	C299.365875,215.709702 300.419434,216.761887 300.418365,224.237579 
	C300.415314,245.566528 300.174103,266.898163 300.493958,288.221741 
	C300.545990,291.689331 302.003876,296.290344 304.485931,298.360107 
	C313.528931,305.901031 323.243134,312.644196 332.802948,319.551575 
	C334.516235,320.789520 336.668030,321.305939 337.433380,317.238739 
	C337.794586,314.824524 338.456696,312.411987 338.469971,309.995880 
	C338.588654,288.403900 338.592957,266.811310 339.191162,244.739685 
	C339.327057,243.427872 339.561615,242.117706 339.583862,240.803970 
	C339.881775,223.204956 340.182922,205.605759 340.345123,188.005310 
	C340.354980,186.933914 339.204529,185.851822 338.416534,184.186356 
	C338.365326,183.780304 338.314087,183.374268 338.731384,182.539185 
	C337.974274,178.631012 335.602203,176.481277 331.648712,176.140381 
	C328.011688,175.826767 324.368744,175.352936 320.727936,175.348618 
	C285.264984,175.306549 249.801941,175.339188 214.338989,175.387146 
	C212.021103,175.390274 209.683914,175.555542 207.389450,175.882355 
	C198.545456,177.141983 196.174744,179.952652 196.178818,189.025635 
	C196.186218,205.519379 196.233597,222.013123 196.224380,238.506851 
	C196.209106,265.829803 196.150024,293.152771 196.138275,320.475708 
	C196.135773,326.294586 198.750229,330.307220 203.495926,331.549591 
	C211.786972,333.720062 220.184692,335.505676 228.417465,337.871094 
	C241.924057,341.751740 255.273911,346.038818 267.534302,353.236816 
	C271.424774,355.520874 270.615936,357.278442 268.196777,359.666443 
	C259.841309,367.914185 249.679901,373.437866 238.496262,375.989990 
	C228.911514,378.177307 218.840317,378.418610 208.954056,379.039520 
	C201.213974,379.525665 196.482010,381.677551 196.412857,391.107483 
	C196.078033,436.754181 196.275726,482.404999 196.413452,528.054016 
	C196.418640,529.775513 197.752670,531.493042 198.648239,533.801575 
	C198.711151,534.207275 198.774063,534.612976 198.351852,535.403503 
	C200.667923,536.826294 202.962708,539.397217 205.304352,539.440674 
	C210.714584,539.540955 216.238480,538.838928 221.551590,537.696472 
	C231.328659,535.594055 241.392883,533.948425 250.587402,530.248535 
	C260.937866,526.083496 270.653809,520.181274 280.258179,514.391724 
	C284.872375,511.610229 288.595062,507.349792 292.876373,503.849060 
	C292.876373,503.849060 292.758850,503.713959 293.460175,503.843262 
	C293.773193,503.740631 294.157593,503.721466 294.389069,503.523468 
	C312.883514,487.707062 327.445679,468.931915 336.852081,446.393311 
	C338.485779,442.478821 339.148102,438.158936 340.282684,433.411163 
	C340.379456,433.013214 340.476196,432.615265 341.175171,431.935974 
	C341.565674,429.633942 341.956177,427.331940 342.337433,424.323090 
	C342.436401,423.624573 342.535400,422.926056 343.260803,421.898071 
	C343.724548,421.040649 344.580139,420.188171 344.591095,419.325012 
	C344.693817,411.208313 344.728607,403.088257 344.560608,394.973755 
	C344.538300,393.895691 343.273926,392.843292 342.430389,391.086792 
	C342.382202,390.380096 342.334015,389.673431 342.777924,388.414368 
	C342.236542,386.053558 341.783386,383.668396 341.139679,381.335846 
	C336.507477,364.550049 327.316711,350.545074 314.823822,338.608582 
	C313.728333,337.561890 312.117706,337.054382 310.842987,336.171509 
	C310.842987,336.171509 310.704224,336.246887 310.851562,335.568085 
M225.826767,139.658249 
	C244.872055,156.876312 267.532959,162.481674 291.152557,154.059250 
	C329.514893,140.379822 347.973267,105.467278 337.761688,65.852989 
	C328.934113,31.607969 290.297546,3.441958 251.695267,16.688026 
	C224.874115,25.891483 207.338196,43.379925 202.271408,71.812042 
	C197.536514,98.381805 204.766754,121.132065 225.826767,139.658249 
z"/>
<path fill="#040404" opacity="1.000000" stroke="none" 
	d="
M338.630920,245.218887 
	C338.592957,266.811310 338.588654,288.403900 338.469971,309.995880 
	C338.456696,312.411987 337.794586,314.824524 336.791992,317.653320 
	C334.516968,317.576721 332.607086,317.471100 331.295135,316.531006 
	C323.591217,311.010681 316.145996,305.124390 308.369385,299.712341 
	C303.911011,296.609589 302.437622,292.829102 302.509827,287.462402 
	C302.796631,266.135986 302.707123,244.803925 302.669220,223.474121 
	C302.658264,217.314835 300.084778,214.665573 294.044525,214.105530 
	C293.216705,214.028778 292.381012,214.010635 291.548920,214.010101 
	C275.718933,213.999908 259.887787,213.895386 244.059830,214.072495 
	C240.686356,214.110229 236.462280,213.080933 234.792862,217.802261 
	C234.792862,217.802261 234.582794,218.176315 234.194458,218.540726 
	C233.324982,220.607178 232.432419,222.307404 232.424957,224.011520 
	C232.328278,246.102844 232.363556,268.194733 232.350388,290.286469 
	C232.347153,295.714050 234.785889,299.446075 239.935364,301.268799 
	C246.801117,303.698944 253.793701,305.807343 260.540253,308.528870 
	C270.152557,312.406433 279.590881,316.715118 289.103546,320.839630 
	C289.753723,321.279480 290.403900,321.719360 291.428955,322.618927 
	C298.103973,327.468048 304.404083,331.857483 310.704224,336.246887 
	C310.704224,336.246887 310.842987,336.171509 310.836670,336.567932 
	C322.426636,347.384003 331.309631,359.742096 337.125305,374.218170 
	C339.064941,379.046173 340.577850,384.045654 342.285828,388.966736 
	C342.334015,389.673431 342.382202,390.380096 342.342285,391.871094 
	C342.380890,402.512787 342.507629,412.370148 342.634369,422.227539 
	C342.535400,422.926056 342.436401,423.624573 342.055847,424.913391 
	C341.373840,427.741547 340.973389,429.979431 340.572937,432.217316 
	C340.476196,432.615265 340.379456,433.013214 339.951355,433.890198 
	C339.340118,434.778992 338.934692,435.150970 338.798279,435.603912 
	C332.514130,456.469177 321.067078,474.235657 306.176849,489.923492 
	C301.761810,494.575043 297.234619,499.120087 292.758850,503.713928 
	C292.758850,503.713959 292.876373,503.849060 292.455963,503.829407 
	C270.975525,519.859070 248.514587,532.942383 221.568878,535.976501 
	C214.017685,536.826782 206.224503,539.586731 198.836975,535.018677 
	C198.774063,534.612976 198.711151,534.207275 198.714539,533.047852 
	C198.725647,487.132996 198.770294,441.971375 198.556000,396.811005 
	C198.489456,382.788116 199.075760,380.584076 214.143097,381.104584 
	C234.045959,381.792206 251.815399,375.665863 267.260437,363.038452 
	C274.670868,356.979828 274.451324,354.961304 266.161682,350.431763 
	C248.014404,340.515869 228.167999,335.563751 208.282654,330.813049 
	C199.921326,328.815491 198.299271,327.252228 198.307083,318.795990 
	C198.347229,275.301056 198.382950,231.806137 198.447083,188.311249 
	C198.459595,179.822708 200.977844,177.330963 209.525208,177.318649 
	C247.853989,177.263397 286.183197,177.314850 324.511200,177.116608 
	C330.171539,177.087341 334.938416,178.043137 338.262878,182.968216 
	C338.314087,183.374268 338.365326,183.780304 338.337952,184.937378 
	C338.219055,200.759048 338.137054,215.829758 338.162842,230.900284 
	C338.170990,235.673416 338.466766,240.446030 338.630920,245.218887 
M294.136200,446.608002 
	C294.541046,445.883667 294.923401,445.145660 295.354034,444.437012 
	C305.573761,427.619476 310.775574,409.977875 304.519501,390.342285 
	C302.641693,384.448395 299.361420,383.360901 294.786499,387.610504 
	C280.273407,401.091614 263.581238,410.408020 244.171234,414.814270 
	C236.337601,416.592560 234.618225,419.031403 234.623795,426.929565 
	C234.637543,446.398590 234.681503,465.867584 234.722885,485.336609 
	C234.725357,486.499359 234.651566,487.695801 234.888474,488.818512 
	C235.747223,492.888214 238.038773,493.950897 241.838745,492.212982 
	C263.540527,482.287659 280.715973,467.151306 294.136200,446.608002 
z"/>
<path fill="#050505" opacity="1.000000" stroke="none" 
	d="
M225.551758,139.437805 
	C204.766754,121.132065 197.536514,98.381805 202.271408,71.812042 
	C207.338196,43.379925 224.874115,25.891483 251.695267,16.688026 
	C290.297546,3.441958 328.934113,31.607969 337.761688,65.852989 
	C347.973267,105.467278 329.514893,140.379822 291.152557,154.059250 
	C267.532959,162.481674 244.872055,156.876312 225.551758,139.437805 
M242.740051,103.625153 
	C247.683197,111.946434 254.855453,117.553253 264.393127,118.913948 
	C290.145538,122.587929 309.491455,100.853241 302.305573,75.927040 
	C296.210480,54.784683 276.145020,47.102421 257.168854,54.214783 
	C241.919800,59.930199 229.674805,83.633865 242.740051,103.625153 
z"/>
<path fill="#9F9F9F" opacity="1.000000" stroke="none" 
	d="
M338.497131,182.753693 
	C334.938416,178.043137 330.171539,177.087341 324.511200,177.116608 
	C286.183197,177.314850 247.853989,177.263397 209.525208,177.318649 
	C200.977844,177.330963 198.459595,179.822708 198.447083,188.311249 
	C198.382950,231.806137 198.347229,275.301056 198.307083,318.795990 
	C198.299271,327.252228 199.921326,328.815491 208.282654,330.813049 
	C228.167999,335.563751 248.014404,340.515869 266.161682,350.431763 
	C274.451324,354.961304 274.670868,356.979828 267.260437,363.038452 
	C251.815399,375.665863 234.045959,381.792206 214.143097,381.104584 
	C199.075760,380.584076 198.489456,382.788116 198.556000,396.811005 
	C198.770294,441.971375 198.725647,487.132996 198.624146,532.753296 
	C197.752670,531.493042 196.418640,529.775513 196.413452,528.054016 
	C196.275726,482.404999 196.078033,436.754181 196.412857,391.107483 
	C196.482010,381.677551 201.213974,379.525665 208.954056,379.039520 
	C218.840317,378.418610 228.911514,378.177307 238.496262,375.989990 
	C249.679901,373.437866 259.841309,367.914185 268.196777,359.666443 
	C270.615936,357.278442 271.424774,355.520874 267.534302,353.236816 
	C255.273911,346.038818 241.924057,341.751740 228.417465,337.871094 
	C220.184692,335.505676 211.786972,333.720062 203.495926,331.549591 
	C198.750229,330.307220 196.135773,326.294586 196.138275,320.475708 
	C196.150024,293.152771 196.209106,265.829803 196.224380,238.506851 
	C196.233597,222.013123 196.186218,205.519379 196.178818,189.025635 
	C196.174744,179.952652 198.545456,177.141983 207.389450,175.882355 
	C209.683914,175.555542 212.021103,175.390274 214.338989,175.387146 
	C249.801941,175.339188 285.264984,175.306549 320.727936,175.348618 
	C324.368744,175.352936 328.011688,175.826767 331.648712,176.140381 
	C335.602203,176.481277 337.974274,178.631012 338.497131,182.753693 
z"/>
<path fill="#939393" opacity="1.000000" stroke="none" 
	d="
M235.187851,217.766190 
	C236.462280,213.080933 240.686356,214.110229 244.059830,214.072495 
	C259.887787,213.895386 275.718933,213.999908 291.548920,214.010101 
	C292.381012,214.010635 293.216705,214.028778 294.044525,214.105530 
	C300.084778,214.665573 302.658264,217.314835 302.669220,223.474121 
	C302.707123,244.803925 302.796631,266.135986 302.509827,287.462402 
	C302.437622,292.829102 303.911011,296.609589 308.369385,299.712341 
	C316.145996,305.124390 323.591217,311.010681 331.295135,316.531006 
	C332.607086,317.471100 334.516968,317.576721 336.551270,318.006744 
	C336.668030,321.305939 334.516235,320.789520 332.802948,319.551575 
	C323.243134,312.644196 313.528931,305.901031 304.485931,298.360107 
	C302.003876,296.290344 300.545990,291.689331 300.493958,288.221741 
	C300.174103,266.898163 300.415314,245.566528 300.418365,224.237579 
	C300.419434,216.761887 299.365875,215.709702 292.081360,215.697144 
	C275.917694,215.669250 259.752960,215.594604 243.591339,215.778152 
	C240.914795,215.808533 238.251999,217.048920 235.187851,217.766190 
z"/>
<path fill="#939393" opacity="1.000000" stroke="none" 
	d="
M289.073364,320.499390 
	C279.590881,316.715118 270.152557,312.406433 260.540253,308.528870 
	C253.793701,305.807343 246.801117,303.698944 239.935364,301.268799 
	C234.785889,299.446075 232.347153,295.714050 232.350388,290.286469 
	C232.363556,268.194733 232.328278,246.102844 232.424957,224.011520 
	C232.432419,222.307404 233.324982,220.607178 234.137329,218.747467 
	C234.521515,241.206619 234.608505,263.823425 234.612732,286.440247 
	C234.614761,297.236938 234.621048,297.034332 244.719193,300.895935 
	C257.665863,305.846832 270.496582,311.105499 283.314667,316.383606 
	C285.390411,317.238373 287.141815,318.880829 289.073364,320.499390 
z"/>
<path fill="#9F9F9F" opacity="1.000000" stroke="none" 
	d="
M198.594421,535.211060 
	C206.224503,539.586731 214.017685,536.826782 221.568878,535.976501 
	C248.514587,532.942383 270.975525,519.859070 292.378540,503.784424 
	C288.595062,507.349792 284.872375,511.610229 280.258179,514.391724 
	C270.653809,520.181274 260.937866,526.083496 250.587402,530.248535 
	C241.392883,533.948425 231.328659,535.594055 221.551590,537.696472 
	C216.238480,538.838928 210.714584,539.540955 205.304352,539.440674 
	C202.962708,539.397217 200.667923,536.826294 198.594421,535.211060 
z"/>
<path fill="#9F9F9F" opacity="1.000000" stroke="none" 
	d="
M293.109497,503.778595 
	C297.234619,499.120087 301.761810,494.575043 306.176849,489.923492 
	C321.067078,474.235657 332.514130,456.469177 338.798279,435.603912 
	C338.934692,435.150970 339.340118,434.778992 339.939545,434.197754 
	C339.148102,438.158936 338.485779,442.478821 336.852081,446.393311 
	C327.445679,468.931915 312.883514,487.707062 294.389069,503.523468 
	C294.157593,503.721466 293.773193,503.740631 293.109497,503.778595 
z"/>
<path fill="#9F9F9F" opacity="1.000000" stroke="none" 
	d="
M342.531860,388.690552 
	C340.577850,384.045654 339.064941,379.046173 337.125305,374.218170 
	C331.309631,359.742096 322.426636,347.384003 310.788361,336.630371 
	C312.117706,337.054382 313.728333,337.561890 314.823822,338.608582 
	C327.316711,350.545074 336.507477,364.550049 341.139679,381.335846 
	C341.783386,383.668396 342.236542,386.053558 342.531860,388.690552 
z"/>
<path fill="#9F9F9F" opacity="1.000000" stroke="none" 
	d="
M338.911041,244.979279 
	C338.466766,240.446030 338.170990,235.673416 338.162842,230.900284 
	C338.137054,215.829758 338.219055,200.759048 338.426636,185.231552 
	C339.204529,185.851822 340.354980,186.933914 340.345123,188.005310 
	C340.182922,205.605759 339.881775,223.204956 339.583862,240.803970 
	C339.561615,242.117706 339.327057,243.427872 338.911041,244.979279 
z"/>
<path fill="#9F9F9F" opacity="1.000000" stroke="none" 
	d="
M342.947571,422.062805 
	C342.507629,412.370148 342.380890,402.512787 342.419495,392.217224 
	C343.273926,392.843292 344.538300,393.895691 344.560608,394.973755 
	C344.728607,403.088257 344.693817,411.208313 344.591095,419.325012 
	C344.580139,420.188171 343.724548,421.040649 342.947571,422.062805 
z"/>
<path fill="#9F9F9F" opacity="1.000000" stroke="none" 
	d="
M310.777893,335.907471 
	C304.404083,331.857483 298.103973,327.468048 291.685028,322.766663 
	C293.415985,323.208832 295.507019,323.633606 297.070312,324.778809 
	C301.774384,328.224640 306.272888,331.951080 310.777893,335.907471 
z"/>
<path fill="#9F9F9F" opacity="1.000000" stroke="none" 
	d="
M340.874084,432.076660 
	C340.973389,429.979431 341.373840,427.741547 342.060486,425.266785 
	C341.956177,427.331940 341.565674,429.633942 340.874084,432.076660 
z"/>
<path fill="#F3F3F3" opacity="1.000000" stroke="none" 
	d="
M293.924927,446.903015 
	C280.715973,467.151306 263.540527,482.287659 241.838745,492.212982 
	C238.038773,493.950897 235.747223,492.888214 234.888474,488.818512 
	C234.651566,487.695801 234.725357,486.499359 234.722885,485.336609 
	C234.681503,465.867584 234.637543,446.398590 234.623795,426.929565 
	C234.618225,419.031403 236.337601,416.592560 244.171234,414.814270 
	C263.581238,410.408020 280.273407,401.091614 294.786499,387.610504 
	C299.361420,383.360901 302.641693,384.448395 304.519501,390.342285 
	C310.775574,409.977875 305.573761,427.619476 295.354034,444.437012 
	C294.923401,445.145660 294.541046,445.883667 293.924927,446.903015 
z"/>
<path fill="#F2F2F2" opacity="1.000000" stroke="none" 
	d="
M242.581818,103.289902 
	C229.674805,83.633865 241.919800,59.930199 257.168854,54.214783 
	C276.145020,47.102421 296.210480,54.784683 302.305573,75.927040 
	C309.491455,100.853241 290.145538,122.587929 264.393127,118.913948 
	C254.855453,117.553253 247.683197,111.946434 242.581818,103.289902 
z"/>
</svg>