<svg version="1.1" id="Layer_1" xmlns="http://www.w3.org/2000/svg" xmlns:xlink="http://www.w3.org/1999/xlink" x="0px" y="0px"
	 width="100%" viewBox="0 0 474 474" enable-background="new 0 0 474 474" xml:space="preserve">
<path fill="#FDFDFD" opacity="1.000000" stroke="none" 
	d="
M1.000000,174.000000 
	C1.000000,116.000000 1.000000,58.500000 1.000000,1.000000 
	C159.000000,1.000000 317.000000,1.000000 475.000000,1.000000 
	C475.000000,159.000000 475.000000,317.000000 475.000000,475.000000 
	C317.000000,475.000000 159.000000,475.000000 1.000000,475.000000 
	C1.000000,374.833344 1.000000,274.666656 1.000000,174.000000 
M205.006104,261.991486 
	C205.006104,261.991486 205.103729,261.879517 205.081924,262.596283 
	C206.126495,263.353729 207.171066,264.111206 208.625885,265.054626 
	C208.882385,265.235870 209.051712,265.478088 209.109329,266.512848 
	C210.158447,267.289703 211.207550,268.066589 212.810562,269.161713 
	C214.172852,270.541443 215.535141,271.921173 216.889694,273.975128 
	C218.705368,277.029907 219.369919,277.196899 221.315750,274.420746 
	C232.850586,262.932281 244.385406,251.443848 256.602966,239.969223 
	C257.054871,239.288101 257.506805,238.606964 258.118683,237.471420 
	C258.307129,237.188232 258.567932,237.012390 259.606781,236.954132 
	C260.385681,235.936203 261.164581,234.918289 262.119019,233.456848 
	C262.308441,233.178284 262.568481,233.006882 263.609283,232.951553 
	C264.376404,231.919296 265.143555,230.887054 266.167389,229.285278 
	C267.382294,228.150909 268.597198,227.016541 270.537140,225.910645 
	C271.318817,224.874878 272.100525,223.839111 273.199188,222.229187 
	C276.684357,218.746933 280.169525,215.264694 284.249817,211.663879 
	C284.421692,211.318802 284.593536,210.973724 285.084534,210.061691 
	C297.705170,197.314651 310.325806,184.567612 323.199341,171.565140 
	C314.178650,162.070480 305.502167,152.938080 296.295776,143.247955 
	C271.114380,170.907974 246.311996,198.151688 221.144058,225.796921 
	C207.584442,210.501495 194.703644,195.971786 181.619415,181.212616 
	C180.162445,182.282562 178.925705,183.072205 177.823990,184.018936 
	C170.374344,190.420883 162.936234,196.836487 155.528931,203.287354 
	C150.581711,207.595749 150.576187,208.122330 155.116959,212.602661 
	C170.757858,228.035278 186.406174,243.460373 202.072906,259.592712 
	C203.088821,260.360809 204.104736,261.128906 205.006104,261.991486 
M354.938232,413.551788 
	C354.544586,414.363312 354.150909,415.174835 353.331299,416.195038 
	C353.331299,416.195038 353.209229,416.653442 352.577148,416.842041 
	C348.249268,418.178589 343.925446,420.664368 339.592865,420.679810 
	C271.260529,420.923645 202.926895,420.790009 134.593964,420.933075 
	C127.016190,420.948944 121.312210,418.683319 117.917038,411.086578 
	C117.740196,410.684174 117.563354,410.281769 117.569756,408.971680 
	C117.544052,407.973175 117.495834,406.974640 117.495865,405.976135 
	C117.498413,315.888947 117.504532,225.801743 117.511124,135.714539 
	C117.511375,132.217682 117.469994,128.719971 117.531578,125.224121 
	C117.721107,114.464996 122.557472,109.685257 133.180496,109.695549 
	C138.342606,109.700554 143.504715,109.703827 148.666824,109.705925 
	C152.737778,109.707581 156.808716,109.706253 160.927780,109.706253 
	C160.927780,94.583580 160.927780,80.316063 160.927780,65.841621 
	C159.563675,65.676270 158.438110,65.423210 157.311996,65.420631 
	C136.497131,65.373146 115.682182,65.343773 94.867287,65.360077 
	C93.577156,65.361092 92.287346,65.770988 90.252716,65.787766 
	C89.507805,65.941124 88.762886,66.094490 87.286018,66.116348 
	C77.545708,69.194382 72.188133,75.414444 71.585846,84.714249 
	C71.643028,85.484116 71.700211,86.253983 71.460571,87.919388 
	C71.440147,88.418159 71.401840,88.916924 71.401817,89.415695 
	C71.397552,206.954834 71.394760,324.493958 71.409859,442.033112 
	C71.410027,443.347504 71.644150,444.661896 71.560112,446.654358 
	C71.681023,447.106049 71.801933,447.557739 71.761009,448.786102 
	C74.480133,459.811707 81.810280,465.542633 93.894897,465.548798 
	C189.530502,465.597687 285.166168,465.602783 380.801666,465.477173 
	C384.500214,465.472290 388.482727,464.631653 391.839478,463.099426 
	C401.003571,458.916351 402.393555,450.079315 402.411163,441.573578 
	C402.606140,347.437927 402.538849,253.301758 402.542206,159.165726 
	C402.543060,135.340149 402.715515,111.512749 402.464905,87.689812 
	C402.352448,76.996925 395.993988,67.233627 385.360474,65.937744 
	C384.904327,65.964012 384.448151,65.990288 383.276581,65.625549 
	C359.900787,65.625549 336.524994,65.625549 312.761841,65.625549 
	C312.761841,73.348503 312.761810,80.486610 312.761810,87.624718 
	C312.761810,94.860252 312.761841,102.095787 312.761841,109.700043 
	C322.126556,109.700043 330.589874,109.700264 339.053192,109.699989 
	C351.156982,109.699600 355.154724,113.145508 356.535797,125.897133 
	C356.617981,144.936432 356.700165,163.975739 356.508179,183.732925 
	C356.599426,184.483856 356.690674,185.234802 356.530792,186.897171 
	C356.614716,200.269806 356.698669,213.642441 356.508514,227.732941 
	C356.599548,228.483856 356.690613,229.234772 356.530701,230.897141 
	C356.614685,244.269821 356.698639,257.642517 356.508484,271.733063 
	C356.599548,272.483948 356.690613,273.234863 356.530701,274.897186 
	C356.614746,295.603180 356.698761,316.309174 356.508881,337.733093 
	C356.599976,338.483978 356.691101,339.234894 356.531189,340.897217 
	C356.617249,362.603363 356.703278,384.309540 356.512909,406.763184 
	C356.498016,407.814301 356.483093,408.865387 356.207489,410.346954 
	C356.241547,410.511230 356.275604,410.675476 355.853485,411.239655 
	C355.742401,411.820465 355.631317,412.401245 355.551910,413.070374 
	C355.551910,413.070374 355.480103,413.130768 354.938232,413.551788 
M319.076324,387.114624 
	C319.099884,383.135864 318.986847,379.150055 319.190887,375.180573 
	C319.349915,372.086517 318.597534,370.752014 315.071350,370.886383 
	C307.290192,371.182922 299.489380,370.925934 291.697205,370.980438 
	C279.443756,371.066193 267.190765,371.222626 254.155685,370.974548 
	C253.074112,371.830200 251.111923,372.633179 251.057083,373.550201 
	C250.752441,378.644714 250.910965,383.766937 250.910965,388.954620 
	C252.225830,389.171875 253.026657,389.418579 253.827896,389.419830 
	C274.436249,389.452271 295.044708,389.480408 315.652832,389.406799 
	C316.674255,389.403137 317.692413,388.474518 319.076324,387.114624 
M220.090973,336.794220 
	C203.104477,336.775238 186.114883,336.546448 169.132324,336.795502 
	C151.705963,337.051117 155.097015,333.324493 154.805252,352.038391 
	C154.800308,352.355011 154.985214,352.674591 154.895355,353.856079 
	C155.533035,354.259399 156.169617,355.013306 156.808548,355.015289 
	C177.906860,355.080963 199.005478,355.094116 220.103638,355.012634 
	C221.014328,355.009125 222.693878,354.059113 222.710068,353.511414 
	C222.866409,348.222290 222.761215,342.924408 222.627335,337.631653 
	C222.622345,337.434387 221.559082,337.263947 220.090973,336.794220 
M319.093170,352.088440 
	C319.093170,347.153046 319.093170,342.217651 319.093170,336.691528 
	C314.474915,336.691528 310.359955,336.670166 306.245270,336.695160 
	C288.498627,336.802948 270.752106,336.924377 252.135941,336.884155 
	C251.567856,342.744659 250.999756,348.605194 250.505692,353.702026 
	C251.626099,354.641907 251.750610,354.837982 251.875977,354.838531 
	C273.415619,354.931183 294.955383,355.031708 316.494904,354.999756 
	C317.264374,354.998596 318.031891,353.682953 319.093170,352.088440 
M318.660645,320.494415 
	C318.920288,317.764679 319.382904,315.036499 319.404144,312.304901 
	C319.492767,300.923767 319.444061,300.923401 307.113342,302.500183 
	C305.772705,302.563629 304.432098,302.627075 302.346771,302.331512 
	C292.863251,302.447845 283.379700,302.564148 273.045990,302.489319 
	C270.728821,302.552368 268.411621,302.615448 265.354095,302.317627 
	C261.725677,302.282135 258.093811,302.145477 254.470810,302.268677 
	C253.281021,302.309113 251.081436,303.051147 251.091522,303.425262 
	C251.245178,309.124084 251.689178,314.815063 252.955032,320.785797 
	C274.616638,320.699524 296.278259,320.613251 318.660645,320.494415 
M156.470276,371.208588 
	C156.294876,371.308990 156.119492,371.409424 155.127518,371.722443 
	C154.957153,375.989502 154.999908,380.278931 154.555267,384.517212 
	C154.127823,388.591431 155.725357,389.550751 159.601395,389.513733 
	C179.012070,389.328308 198.425415,389.426605 217.837799,389.403076 
	C219.433121,389.401154 221.028244,389.233887 223.026276,389.120605 
	C223.026276,383.505310 223.100266,378.381531 222.935059,373.265472 
	C222.913788,372.606812 221.652054,371.988220 220.084854,371.018799 
	C206.925308,370.996643 193.765533,370.920532 180.606293,370.974243 
	C173.637909,371.002686 166.670425,371.256805 159.071136,371.106110 
	C158.395081,371.206665 157.719025,371.307220 156.470276,371.208588 
M290.524292,42.634533 
	C286.201660,42.511749 281.871674,42.181381 277.558746,42.333469 
	C274.253082,42.450039 273.042206,41.593109 272.775299,37.976463 
	C271.485382,20.496859 257.470398,6.716229 239.994843,5.282616 
	C222.255524,3.827363 206.118942,15.352835 201.918304,32.453568 
	C201.123993,35.687180 201.214630,40.305862 199.136032,41.748726 
	C196.755417,43.401249 192.411133,42.250031 188.919708,42.272678 
	C176.903549,42.350628 171.384125,47.801933 171.371094,59.728039 
	C171.348907,80.042564 171.498260,100.358665 171.262726,120.670479 
	C171.211349,125.101288 172.478088,126.280502 176.859497,126.263260 
	C216.988464,126.105438 257.118317,126.172874 297.247894,126.174736 
	C297.913940,126.174767 298.789368,126.447510 299.206329,126.125641 
	C300.402740,125.202141 302.351624,124.044449 302.358856,122.967735 
	C302.506775,100.990974 302.508453,79.012009 302.340790,57.035004 
	C302.284851,49.700054 298.395752,44.906799 290.524292,42.634533 
M157.028412,320.849518 
	C178.926987,320.849518 200.825562,320.849518 222.793854,320.849518 
	C222.793854,314.287842 222.793854,308.672180 222.793854,302.612488 
	C220.784637,302.509216 218.997009,302.338959 217.209244,302.337555 
	C199.546021,302.323761 181.882751,302.326569 164.219528,302.348694 
	C154.596100,302.360748 154.478012,302.383728 154.653015,312.060944 
	C154.705704,314.973907 155.614929,317.871307 157.028412,320.849518 
z"/>
<path fill="#2A3843" opacity="1.000000" stroke="none" 
	d="
M356.781677,273.985748 
	C356.690613,273.234863 356.599548,272.483948 357.059509,271.298126 
	C358.072113,269.906067 358.927551,268.952087 358.935272,267.991302 
	C359.028046,256.381744 359.053467,244.770370 358.899567,233.162079 
	C358.885376,232.094116 357.519745,231.044052 356.781677,229.985687 
	C356.690613,229.234772 356.599548,228.483856 357.059570,227.298065 
	C358.072174,225.906067 358.927551,224.952072 358.935272,223.991318 
	C359.028046,212.381744 359.053467,200.770401 358.899597,189.162155 
	C358.885406,188.094177 357.519897,187.044113 356.781891,185.985748 
	C356.690674,185.234802 356.599426,184.483856 357.059265,183.298065 
	C358.072021,181.904633 358.931671,180.947906 358.936188,179.987152 
	C359.017883,162.714966 359.035431,145.441986 358.902069,128.170456 
	C358.893799,127.103394 357.522736,126.046867 356.785736,124.985443 
	C355.154724,113.145508 351.156982,109.699600 339.053192,109.699989 
	C330.589874,109.700264 322.126556,109.700043 312.761841,109.700043 
	C312.761841,102.095787 312.761810,94.860252 312.761810,87.624718 
	C312.761810,80.486610 312.761841,73.348503 312.761841,65.625549 
	C336.524994,65.625549 359.900787,65.625549 383.342651,66.119522 
	C381.601166,66.745689 379.793793,66.990280 377.986084,66.992813 
	C358.708313,67.019821 339.430542,67.008446 320.152740,67.007637 
	C318.492676,67.007568 316.832611,67.007622 315.172546,67.007622 
	C337.941864,67.999733 360.676361,68.018745 383.410339,67.926338 
	C384.269653,67.922836 385.124542,66.840080 385.981506,66.260246 
	C395.993988,67.233627 402.352448,76.996925 402.464905,87.689812 
	C402.715515,111.512749 402.543060,135.340149 402.542206,159.165726 
	C402.538849,253.301758 402.606140,347.437927 402.411163,441.573578 
	C402.393555,450.079315 401.003571,458.916351 391.839478,463.099426 
	C388.482727,464.631653 384.500214,465.472290 380.801666,465.477173 
	C285.166168,465.602783 189.530502,465.597687 93.894897,465.548798 
	C81.810280,465.542633 74.480133,459.811707 72.156273,448.357178 
	C72.859764,447.491028 73.167992,447.053802 73.476227,446.616547 
	C72.907173,446.403137 72.338120,446.189697 71.769066,445.976288 
	C71.644150,444.661896 71.410027,443.347504 71.409859,442.033112 
	C71.394760,324.493958 71.397552,206.954834 71.401817,89.415695 
	C71.401840,88.916924 71.440147,88.418159 71.965103,87.428665 
	C74.650581,85.489136 74.270500,84.543259 71.890739,83.990059 
	C72.188133,75.414444 77.545708,69.194382 87.770493,66.555710 
	C89.458733,67.330788 90.661674,67.955856 91.866364,67.959221 
	C113.151039,68.018555 134.435928,68.005035 155.720764,67.989983 
	C156.456711,67.989464 157.192505,67.810051 157.928375,67.714027 
	C157.918106,67.479584 157.907837,67.245148 157.897568,67.010712 
	C156.274857,67.010712 154.652145,67.010742 153.029434,67.010704 
	C134.072617,67.010231 115.115707,67.035973 96.159157,66.964958 
	C94.437370,66.958504 92.717926,66.330193 90.997391,65.990646 
	C92.287346,65.770988 93.577156,65.361092 94.867287,65.360077 
	C115.682182,65.343773 136.497131,65.373146 157.311996,65.420631 
	C158.438110,65.423210 159.563675,65.676270 160.927780,65.841621 
	C160.927780,80.316063 160.927780,94.583580 160.927780,109.706253 
	C156.808716,109.706253 152.737778,109.707581 148.666824,109.705925 
	C143.504715,109.703827 138.342606,109.700554 133.180496,109.695549 
	C122.557472,109.685257 117.721107,114.464996 117.531578,125.224121 
	C117.469994,128.719971 117.511375,132.217682 117.511124,135.714539 
	C117.504532,225.801743 117.498413,315.888947 117.495865,405.976135 
	C117.495834,406.974640 117.544052,407.973175 117.182472,409.593658 
	C117.146812,410.727325 117.498436,411.239044 117.850067,411.750732 
	C121.312210,418.683319 127.016190,420.948944 134.593964,420.933075 
	C202.926895,420.790009 271.260529,420.923645 339.592865,420.679810 
	C343.925446,420.664368 348.249268,418.178589 353.271973,416.903076 
	C355.207336,416.748718 356.447906,416.533325 357.688477,416.317932 
	C356.965759,415.205994 356.243011,414.094025 355.520264,412.982056 
	C355.631317,412.401245 355.742401,411.820465 356.339020,411.019165 
	C356.705780,410.504639 356.586975,410.210571 356.468201,409.916504 
	C356.483093,408.865387 356.498016,407.814301 357.064545,406.313354 
	C358.075897,404.902863 358.932953,403.943726 358.936737,402.981232 
	C359.014709,383.044067 359.029755,363.106293 358.901611,343.169647 
	C358.894775,342.103851 357.520111,341.046875 356.782196,339.985779 
	C356.691101,339.234894 356.599976,338.483978 357.059814,337.298157 
	C358.072235,335.904144 358.932373,334.946747 358.936401,333.985748 
	C359.015717,315.046844 359.031494,296.107239 358.901398,277.168884 
	C358.894073,276.103027 357.519775,275.046570 356.781677,273.985748 
M357.410187,117.483925 
	C357.410187,117.483925 357.523712,117.415321 357.410187,117.483925 
z"/>
<path fill="#2B3843" opacity="1.000000" stroke="none" 
	d="
M290.934631,42.692604 
	C298.395752,44.906799 302.284851,49.700054 302.340790,57.035004 
	C302.508453,79.012009 302.506775,100.990974 302.358856,122.967735 
	C302.351624,124.044449 300.402740,125.202141 299.206329,126.125641 
	C298.789368,126.447510 297.913940,126.174767 297.247894,126.174736 
	C257.118317,126.172874 216.988464,126.105438 176.859497,126.263260 
	C172.478088,126.280502 171.211349,125.101288 171.262726,120.670479 
	C171.498260,100.358665 171.348907,80.042564 171.371094,59.728039 
	C171.384125,47.801933 176.903549,42.350628 188.919708,42.272678 
	C192.411133,42.250031 196.755417,43.401249 199.136032,41.748726 
	C201.214630,40.305862 201.123993,35.687180 201.918304,32.453568 
	C206.118942,15.352835 222.255524,3.827363 239.994843,5.282616 
	C257.470398,6.716229 271.485382,20.496859 272.775299,37.976463 
	C273.042206,41.593109 274.253082,42.450039 277.558746,42.333469 
	C281.871674,42.181381 286.201660,42.511749 290.934631,42.692604 
M250.361786,45.499958 
	C250.551819,44.360229 250.863205,43.225719 250.912476,42.079941 
	C251.266708,33.839172 245.132462,27.286674 237.004990,27.164909 
	C229.021622,27.045305 222.719254,33.712139 223.010666,41.968494 
	C223.231262,48.218140 227.864380,53.718552 234.020966,55.039886 
	C240.602234,56.452370 246.197876,53.376774 250.361786,45.499958 
z"/>
<path fill="#2B3943" opacity="1.000000" stroke="none" 
	d="
M202.051666,258.888336 
	C186.406174,243.460373 170.757858,228.035278 155.116959,212.602661 
	C150.576187,208.122330 150.581711,207.595749 155.528931,203.287354 
	C162.936234,196.836487 170.374344,190.420883 177.823990,184.018936 
	C178.925705,183.072205 180.162445,182.282562 181.619415,181.212616 
	C194.703644,195.971786 207.584442,210.501495 221.144058,225.796921 
	C246.311996,198.151688 271.114380,170.907974 296.295776,143.247955 
	C305.502167,152.938080 314.178650,162.070480 323.199341,171.565140 
	C310.325806,184.567612 297.705170,197.314651 284.638794,210.418716 
	C284.013611,211.111313 283.834137,211.446869 283.654694,211.782440 
	C280.169525,215.264694 276.684357,218.746933 272.723389,222.591431 
	C271.435760,223.929840 270.623932,224.906006 269.812103,225.882172 
	C268.597198,227.016541 267.382294,228.150909 265.726135,229.653549 
	C264.489624,230.995422 263.694397,231.969025 262.899170,232.942627 
	C262.568481,233.006882 262.308441,233.178284 261.715576,233.749023 
	C260.508484,235.008759 259.704803,235.976318 258.901154,236.943893 
	C258.567932,237.012390 258.307129,237.188232 257.739075,237.769730 
	C256.879730,238.697174 256.399994,239.326294 255.920258,239.955414 
	C244.385406,251.443848 232.850586,262.932281 220.823013,274.699890 
	C219.185989,274.419647 218.041702,273.860291 216.897430,273.300903 
	C215.535141,271.921173 214.172852,270.541443 212.464752,268.682098 
	C211.123917,267.395386 210.128891,266.588318 209.133865,265.781250 
	C209.051712,265.478088 208.882385,265.235870 208.341766,264.647827 
	C207.073013,263.453857 206.088379,262.666687 205.103729,261.879517 
	C205.103729,261.879517 205.006104,261.991486 204.999435,261.628052 
	C204.012405,260.472504 203.032043,259.680420 202.051666,258.888336 
z"/>
<path fill="#324048" opacity="1.000000" stroke="none" 
	d="
M156.580093,320.812683 
	C155.614929,317.871307 154.705704,314.973907 154.653015,312.060944 
	C154.478012,302.383728 154.596100,302.360748 164.219528,302.348694 
	C181.882751,302.326569 199.546021,302.323761 217.209244,302.337555 
	C218.997009,302.338959 220.784637,302.509216 222.793854,302.612488 
	C222.793854,308.672180 222.793854,314.287842 222.793854,320.849518 
	C200.825562,320.849518 178.926987,320.849518 156.580093,320.812683 
z"/>
<path fill="#2E3B46" opacity="1.000000" stroke="none" 
	d="
M220.964966,371.351074 
	C221.652054,371.988220 222.913788,372.606812 222.935059,373.265472 
	C223.100266,378.381531 223.026276,383.505310 223.026276,389.120605 
	C221.028244,389.233887 219.433121,389.401154 217.837799,389.403076 
	C198.425415,389.426605 179.012070,389.328308 159.601395,389.513733 
	C155.725357,389.550751 154.127823,388.591431 154.555267,384.517212 
	C154.999908,380.278931 154.957153,375.989502 155.556076,372.114746 
	C155.984634,375.926575 155.984634,379.346100 155.984634,382.765656 
	C156.337402,382.754974 156.690186,382.744293 157.042953,382.733612 
	C157.042953,378.958344 157.042953,375.183044 157.042953,371.407776 
	C157.719025,371.307220 158.395081,371.206665 159.646454,371.641174 
	C161.147781,372.450531 162.073151,372.961731 162.999878,372.964233 
	C181.275742,373.013672 199.551895,373.031372 217.827393,372.935822 
	C218.875992,372.930359 219.919235,371.902893 220.964966,371.351074 
z"/>
<path fill="#2E3C44" opacity="1.000000" stroke="none" 
	d="
M303.091461,302.690491 
	C304.432098,302.627075 305.772705,302.563629 307.724884,302.902222 
	C316.821869,305.860291 317.895020,307.223694 317.986115,315.637665 
	C318.003693,317.267059 317.956909,318.897217 317.939880,320.527008 
	C296.278259,320.613251 274.616638,320.699524 252.506256,320.212402 
	C252.041672,317.146637 252.014343,314.654297 252.012146,312.161926 
	C252.004883,303.937103 252.009857,304.018188 260.050415,303.870697 
	C262.071716,303.833618 264.080109,303.094818 266.094452,302.678497 
	C268.411621,302.615448 270.728821,302.552368 273.744934,302.918610 
	C283.474915,303.502441 292.505768,303.675781 301.537476,303.762543 
	C302.051971,303.767517 302.573303,303.064178 303.091461,302.690491 
z"/>
<path fill="#2D3B43" opacity="1.000000" stroke="none" 
	d="
M318.800354,352.979980 
	C318.031891,353.682953 317.264374,354.998596 316.494904,354.999756 
	C294.955383,355.031708 273.415619,354.931183 251.875977,354.838531 
	C251.750610,354.837982 251.626099,354.641907 250.505692,353.702026 
	C250.999756,348.605194 251.567856,342.744659 252.673126,337.353333 
	C254.878403,338.215912 256.544952,338.943390 258.214844,338.951233 
	C275.859070,339.034210 293.505737,339.144684 311.147156,338.907318 
	C315.840759,338.844177 317.299744,340.426270 317.119080,344.973114 
	C317.014069,347.615601 318.196960,350.309326 318.800354,352.979980 
z"/>
<path fill="#2D3B44" opacity="1.000000" stroke="none" 
	d="
M220.988983,337.081024 
	C221.559082,337.263947 222.622345,337.434387 222.627335,337.631653 
	C222.761215,342.924408 222.866409,348.222290 222.710068,353.511414 
	C222.693878,354.059113 221.014328,355.009125 220.103638,355.012634 
	C199.005478,355.094116 177.906860,355.080963 156.808548,355.015289 
	C156.169617,355.013306 155.533035,354.259399 155.359406,353.404602 
	C156.351791,352.220428 157.288574,351.509399 157.328949,350.750702 
	C157.433670,348.782898 157.260300,346.777924 156.987946,344.816956 
	C156.372253,340.383423 157.862610,338.803284 162.641891,338.882812 
	C180.444016,339.178955 198.254425,339.051056 216.060471,338.916962 
	C217.707809,338.904541 219.346359,337.720825 220.988983,337.081024 
z"/>
<path fill="#2F3C46" opacity="1.000000" stroke="none" 
	d="
M318.712097,387.976624 
	C317.692413,388.474518 316.674255,389.403137 315.652832,389.406799 
	C295.044708,389.480408 274.436249,389.452271 253.827896,389.419830 
	C253.026657,389.418579 252.225830,389.171875 250.910965,388.954620 
	C250.910965,383.766937 250.752441,378.644714 251.057083,373.550201 
	C251.111923,372.633179 253.074112,371.830200 254.360687,371.384705 
	C254.412720,372.152710 254.259750,372.510559 254.106781,372.868378 
	C254.420197,372.918793 254.733612,373.013214 255.047043,373.013306 
	C272.136475,373.017242 289.225922,373.010986 306.315369,373.010895 
	C317.963043,373.010834 317.966278,373.014526 316.740295,384.690582 
	C316.710358,384.975861 316.399231,385.231598 316.127930,385.637909 
	C312.489868,386.082275 308.745544,386.539612 304.532440,386.994385 
	C287.435242,386.991821 270.806824,386.991821 254.178406,386.991821 
	C254.180267,387.300018 254.182144,387.608215 254.184006,387.916412 
	C271.118622,387.916412 288.053253,387.916412 305.451294,387.934937 
	C310.180511,387.961151 314.446289,387.968872 318.712097,387.976624 
z"/>
<path fill="#1E2D34" opacity="1.000000" stroke="none" 
	d="
M318.894226,387.545624 
	C314.446289,387.968872 310.180511,387.961151 305.455963,387.705505 
	C304.997223,387.457611 305.001221,386.996948 305.001221,386.996948 
	C308.745544,386.539612 312.489868,386.082275 316.127930,385.637909 
	C316.399231,385.231598 316.710358,384.975861 316.740295,384.690582 
	C317.966278,373.014526 317.963043,373.010834 306.315369,373.010895 
	C289.225922,373.010986 272.136475,373.017242 255.047043,373.013306 
	C254.733612,373.013214 254.420197,372.918793 254.106781,372.868378 
	C254.259750,372.510559 254.412720,372.152710 254.751648,371.571991 
	C267.190765,371.222626 279.443756,371.066193 291.697205,370.980438 
	C299.489380,370.925934 307.290192,371.182922 315.071350,370.886383 
	C318.597534,370.752014 319.349915,372.086517 319.190887,375.180573 
	C318.986847,379.150055 319.099884,383.135864 318.894226,387.545624 
z"/>
<path fill="#212C34" opacity="1.000000" stroke="none" 
	d="
M318.946777,352.534210 
	C318.196960,350.309326 317.014069,347.615601 317.119080,344.973114 
	C317.299744,340.426270 315.840759,338.844177 311.147156,338.907318 
	C293.505737,339.144684 275.859070,339.034210 258.214844,338.951233 
	C256.544952,338.943390 254.878403,338.215912 253.107910,337.431671 
	C270.752106,336.924377 288.498627,336.802948 306.245270,336.695160 
	C310.359955,336.670166 314.474915,336.691528 319.093170,336.691528 
	C319.093170,342.217651 319.093170,347.153046 318.946777,352.534210 
z"/>
<path fill="#212C34" opacity="1.000000" stroke="none" 
	d="
M220.539978,336.937622 
	C219.346359,337.720825 217.707809,338.904541 216.060471,338.916962 
	C198.254425,339.051056 180.444016,339.178955 162.641891,338.882812 
	C157.862610,338.803284 156.372253,340.383423 156.987946,344.816956 
	C157.260300,346.777924 157.433670,348.782898 157.328949,350.750702 
	C157.288574,351.509399 156.351791,352.220428 155.452484,352.972961 
	C154.985214,352.674591 154.800308,352.355011 154.805252,352.038391 
	C155.097015,333.324493 151.705963,337.051117 169.132324,336.795502 
	C186.114883,336.546448 203.104477,336.775238 220.539978,336.937622 
z"/>
<path fill="#273039" opacity="1.000000" stroke="none" 
	d="
M356.656677,340.441498 
	C357.520111,341.046875 358.894775,342.103851 358.901611,343.169647 
	C359.029755,363.106293 359.014709,383.044067 358.936737,402.981232 
	C358.932953,403.943726 358.075897,404.902863 357.202759,405.939636 
	C356.703278,384.309540 356.617249,362.603363 356.656677,340.441498 
z"/>
<path fill="#273039" opacity="1.000000" stroke="none" 
	d="
M356.656189,274.441467 
	C357.519775,275.046570 358.894073,276.103027 358.901398,277.168884 
	C359.031494,296.107239 359.015717,315.046844 358.936401,333.985748 
	C358.932373,334.946747 358.072235,335.904144 357.196777,336.939209 
	C356.698761,316.309174 356.614746,295.603180 356.656189,274.441467 
z"/>
<path fill="#1F2936" opacity="1.000000" stroke="none" 
	d="
M220.524918,371.184937 
	C219.919235,371.902893 218.875992,372.930359 217.827393,372.935822 
	C199.551895,373.031372 181.275742,373.013672 162.999878,372.964233 
	C162.073151,372.961731 161.147781,372.450531 159.962158,371.792633 
	C166.670425,371.256805 173.637909,371.002686 180.606293,370.974243 
	C193.765533,370.920532 206.925308,370.996643 220.524918,371.184937 
z"/>
<path fill="#273039" opacity="1.000000" stroke="none" 
	d="
M356.660767,125.441284 
	C357.522736,126.046867 358.893799,127.103394 358.902069,128.170456 
	C359.035431,145.441986 359.017883,162.714966 358.936188,179.987152 
	C358.931671,180.947906 358.072021,181.904633 357.196350,182.939133 
	C356.700165,163.975739 356.617981,144.936432 356.660767,125.441284 
z"/>
<path fill="#273039" opacity="1.000000" stroke="none" 
	d="
M356.656189,230.441406 
	C357.519745,231.044052 358.885376,232.094116 358.899567,233.162079 
	C359.053467,244.770370 359.028046,256.381744 358.935272,267.991302 
	C358.927551,268.952087 358.072113,269.906067 357.196564,270.939209 
	C356.698639,257.642517 356.614685,244.269821 356.656189,230.441406 
z"/>
<path fill="#273039" opacity="1.000000" stroke="none" 
	d="
M356.656342,186.441467 
	C357.519897,187.044113 358.885406,188.094177 358.899597,189.162155 
	C359.053467,200.770401 359.028046,212.381744 358.935272,223.991318 
	C358.927551,224.952072 358.072174,225.906067 357.196594,226.939148 
	C356.698669,213.642441 356.614716,200.269806 356.656342,186.441467 
z"/>
<path fill="#445256" opacity="1.000000" stroke="none" 
	d="
M318.300232,320.510712 
	C317.956909,318.897217 318.003693,317.267059 317.986115,315.637665 
	C317.895020,307.223694 316.821869,305.860291 308.118256,302.996948 
	C319.444061,300.923401 319.492767,300.923767 319.404144,312.304901 
	C319.382904,315.036499 318.920288,317.764679 318.300232,320.510712 
z"/>
<path fill="#212C34" opacity="1.000000" stroke="none" 
	d="
M90.625053,65.889206 
	C92.717926,66.330193 94.437370,66.958504 96.159157,66.964958 
	C115.115707,67.035973 134.072617,67.010231 153.029434,67.010704 
	C154.652145,67.010742 156.274857,67.010712 157.897568,67.010712 
	C157.907837,67.245148 157.918106,67.479584 157.928375,67.714027 
	C157.192505,67.810051 156.456711,67.989464 155.720764,67.989983 
	C134.435928,68.005035 113.151039,68.018555 91.866364,67.959221 
	C90.661674,67.955856 89.458733,67.330788 88.136475,66.621460 
	C88.762886,66.094490 89.507805,65.941124 90.625053,65.889206 
z"/>
<path fill="#212C34" opacity="1.000000" stroke="none" 
	d="
M385.670990,66.098999 
	C385.124542,66.840080 384.269653,67.922836 383.410339,67.926338 
	C360.676361,68.018745 337.941864,67.999733 315.172546,67.007622 
	C316.832611,67.007622 318.492676,67.007568 320.152740,67.007637 
	C339.430542,67.008446 358.708313,67.019821 377.986084,66.992813 
	C379.793793,66.990280 381.601166,66.745689 383.700348,66.315018 
	C384.448151,65.990288 384.904327,65.964012 385.670990,66.098999 
z"/>
<path fill="#445256" opacity="1.000000" stroke="none" 
	d="
M265.724274,302.498047 
	C264.080109,303.094818 262.071716,303.833618 260.050415,303.870697 
	C252.009857,304.018188 252.004883,303.937103 252.012146,312.161926 
	C252.014343,314.654297 252.041672,317.146637 252.061432,320.073425 
	C251.689178,314.815063 251.245178,309.124084 251.091522,303.425262 
	C251.081436,303.051147 253.281021,302.309113 254.470810,302.268677 
	C258.093811,302.145477 261.725677,302.282135 265.724274,302.498047 
z"/>
<path fill="#445256" opacity="1.000000" stroke="none" 
	d="
M302.719116,302.510986 
	C302.573303,303.064178 302.051971,303.767517 301.537476,303.762543 
	C292.505768,303.675781 283.474915,303.502441 274.170013,303.014160 
	C283.379700,302.564148 292.863251,302.447845 302.719116,302.510986 
z"/>
<path fill="#273039" opacity="1.000000" stroke="none" 
	d="
M355.536072,413.026215 
	C356.243011,414.094025 356.965759,415.205994 357.688477,416.317932 
	C356.447906,416.533325 355.207336,416.748718 353.588013,416.808777 
	C353.209229,416.653442 353.331299,416.195038 353.955597,416.028778 
	C354.879974,414.951935 355.180023,414.041351 355.480103,413.130768 
	C355.480103,413.130768 355.551910,413.070374 355.536072,413.026215 
z"/>
<path fill="#1F2936" opacity="1.000000" stroke="none" 
	d="
M156.756622,371.308167 
	C157.042953,375.183044 157.042953,378.958344 157.042953,382.733612 
	C156.690186,382.744293 156.337402,382.754974 155.984634,382.765656 
	C155.984634,379.346100 155.984634,375.926575 155.964355,372.008453 
	C156.119492,371.409424 156.294876,371.308990 156.756622,371.308167 
z"/>
<path fill="#C9D1D5" opacity="1.000000" stroke="none" 
	d="
M216.893555,273.638000 
	C218.041702,273.860291 219.185989,274.419647 220.667175,274.993988 
	C219.369919,277.196899 218.705368,277.029907 216.893555,273.638000 
z"/>
<path fill="#C9D1D5" opacity="1.000000" stroke="none" 
	d="
M205.092834,262.237915 
	C206.088379,262.666687 207.073013,263.453857 208.136658,264.554871 
	C207.171066,264.111206 206.126495,263.353729 205.092834,262.237915 
z"/>
<path fill="#C9D1D5" opacity="1.000000" stroke="none" 
	d="
M270.174622,225.896408 
	C270.623932,224.906006 271.435760,223.929840 272.564880,222.878510 
	C272.100525,223.839111 271.318817,224.874878 270.174622,225.896408 
z"/>
<path fill="#C9D1D5" opacity="1.000000" stroke="none" 
	d="
M263.254211,232.947083 
	C263.694397,231.969025 264.489624,230.995422 265.597778,229.938309 
	C265.143555,230.887054 264.376404,231.919296 263.254211,232.947083 
z"/>
<path fill="#C9D1D5" opacity="1.000000" stroke="none" 
	d="
M259.253967,236.949005 
	C259.704803,235.976318 260.508484,235.008759 261.627808,233.970795 
	C261.164581,234.918289 260.385681,235.936203 259.253967,236.949005 
z"/>
<path fill="#C9D1D5" opacity="1.000000" stroke="none" 
	d="
M202.062286,259.240540 
	C203.032043,259.680420 204.012405,260.472504 205.056717,261.580780 
	C204.104736,261.128906 203.088821,260.360809 202.062286,259.240540 
z"/>
<path fill="#C9D1D5" opacity="1.000000" stroke="none" 
	d="
M209.121597,266.147034 
	C210.128891,266.588318 211.123917,267.395386 212.187805,268.522949 
	C211.207550,268.066589 210.158447,267.289703 209.121597,266.147034 
z"/>
<path fill="#232D33" opacity="1.000000" stroke="none" 
	d="
M71.738297,84.352158 
	C74.270500,84.543259 74.650581,85.489136 72.113510,86.980896 
	C71.700211,86.253983 71.643028,85.484116 71.738297,84.352158 
z"/>
<path fill="#C9D1D5" opacity="1.000000" stroke="none" 
	d="
M256.261597,239.962311 
	C256.399994,239.326294 256.879730,238.697174 257.659088,237.996948 
	C257.506805,238.606964 257.054871,239.288101 256.261597,239.962311 
z"/>
<path fill="#2A3843" opacity="1.000000" stroke="none" 
	d="
M355.209167,413.341278 
	C355.180023,414.041351 354.879974,414.951935 354.168579,415.924438 
	C354.150909,415.174835 354.544586,414.363312 355.209167,413.341278 
z"/>
<path fill="#232D33" opacity="1.000000" stroke="none" 
	d="
M71.664589,446.315308 
	C72.338120,446.189697 72.907173,446.403137 73.476227,446.616547 
	C73.167992,447.053802 72.859764,447.491028 72.237190,447.968872 
	C71.801933,447.557739 71.681023,447.106049 71.664589,446.315308 
z"/>
<path fill="#223136" opacity="1.000000" stroke="none" 
	d="
M117.883553,411.418640 
	C117.498436,411.239044 117.146812,410.727325 117.090851,410.047485 
	C117.563354,410.281769 117.740196,410.684174 117.883553,411.418640 
z"/>
<path fill="#C9D1D5" opacity="1.000000" stroke="none" 
	d="
M283.952271,211.723160 
	C283.834137,211.446869 284.013611,211.111313 284.479248,210.702194 
	C284.593536,210.973724 284.421692,211.318802 283.952271,211.723160 
z"/>
<path fill="#273039" opacity="1.000000" stroke="none" 
	d="
M356.337830,410.131714 
	C356.586975,410.210571 356.705780,410.504639 356.567078,410.819214 
	C356.275604,410.675476 356.241547,410.511230 356.337830,410.131714 
z"/>
<path fill="#273039" opacity="1.000000" stroke="none" 
	d="
M357.466949,117.449623 
	C357.523712,117.415321 357.410187,117.483925 357.466949,117.449623 
z"/>
<path fill="#F4F5F5" opacity="1.000000" stroke="none" 
	d="
M250.205658,45.864929 
	C246.197876,53.376774 240.602234,56.452370 234.020966,55.039886 
	C227.864380,53.718552 223.231262,48.218140 223.010666,41.968494 
	C222.719254,33.712139 229.021622,27.045305 237.004990,27.164909 
	C245.132462,27.286674 251.266708,33.839172 250.912476,42.079941 
	C250.863205,43.225719 250.551819,44.360229 250.205658,45.864929 
z"/>
<path fill="#1C2A31" opacity="1.000000" stroke="none" 
	d="
M304.532440,386.994385 
	C305.001221,386.996948 304.997223,387.457611 304.992554,387.687012 
	C288.053253,387.916412 271.118622,387.916412 254.184006,387.916412 
	C254.182144,387.608215 254.180267,387.300018 254.178406,386.991821 
	C270.806824,386.991821 287.435242,386.991821 304.532440,386.994385 
z"/>
</svg>