<svg version="1.1" id="Layer_1" xmlns="http://www.w3.org/2000/svg" xmlns:xlink="http://www.w3.org/1999/xlink" x="0px" y="0px"
	 width="100%" viewBox="0 0 118 116" enable-background="new 0 0 118 116" xml:space="preserve">
<path fill="#FEFEFE" opacity="1.000000" stroke="none" 
	d="
M74.000000,117.000000 
	C49.333332,117.000000 25.166666,117.000000 1.000000,117.000000 
	C1.000000,78.333336 1.000000,39.666668 1.000000,1.000000 
	C40.333332,1.000000 79.666664,1.000000 119.000000,1.000000 
	C119.000000,39.666668 119.000000,78.333336 119.000000,117.000000 
	C104.166664,117.000000 89.333336,117.000000 74.000000,117.000000 
M46.350964,79.375595 
	C46.897900,79.325638 47.444836,79.275673 48.450775,79.613846 
	C49.249004,78.699158 50.047234,77.784470 51.429333,76.438797 
	C54.431889,72.796272 54.630959,62.343903 52.474644,58.315266 
	C49.890308,53.486954 45.436916,53.575211 40.962646,52.137959 
	C40.976429,51.092785 40.990215,50.047615 41.522892,48.797920 
	C41.552864,48.190067 41.582836,47.582211 41.946766,46.382675 
	C42.625103,45.251389 43.303440,44.120106 44.585789,42.744743 
	C44.712170,42.053303 44.838554,41.361866 45.171040,40.269371 
	C45.171040,40.269371 45.519382,39.983047 46.147980,40.322990 
	C49.537189,38.511021 52.741741,35.815155 56.351933,35.060928 
	C65.408829,33.168800 72.813690,36.542900 78.274857,44.057774 
	C80.436264,47.031986 80.457588,52.805862 78.195297,53.056808 
	C73.768906,53.547817 70.425087,55.048405 69.710938,59.843407 
	C69.115044,63.844387 67.335381,68.492638 68.699844,71.760239 
	C70.538109,76.162491 70.062172,78.774811 66.028221,81.709412 
	C64.343102,81.765602 62.657978,81.821785 60.579334,81.302109 
	C57.314201,80.487846 55.843273,82.539795 55.873745,85.126167 
	C55.888489,86.377617 57.919403,87.605301 59.418758,89.496231 
	C62.629551,91.318832 65.743958,92.460442 68.766991,88.036240 
	C69.451508,87.888741 70.136024,87.741241 71.457413,88.034065 
	C71.971848,88.020012 72.486275,88.005951 73.402542,88.503143 
	C78.454811,87.511925 81.666924,84.321320 84.274986,79.448425 
	C84.822327,78.919899 85.369675,78.391373 86.570526,77.613564 
	C89.886520,76.363403 90.752892,73.808105 90.687752,70.497353 
	C90.560486,64.030464 91.262749,57.478680 90.435173,51.116364 
	C89.800018,46.233280 88.340683,40.863235 85.512146,36.971218 
	C77.088417,25.380354 62.832142,20.085186 48.519131,27.233997 
	C43.856216,29.562948 38.382084,31.830778 36.339916,38.141720 
	C35.491856,40.038162 34.643791,41.934605 33.152042,44.051823 
	C30.577549,45.782379 29.723238,47.577721 32.596291,50.106163 
	C32.750595,50.711422 32.904900,51.316685 32.902756,52.736309 
	C32.939144,59.446949 32.975529,66.157585 32.434582,72.794975 
	C29.419590,76.030907 34.672310,76.401894 34.468254,78.663765 
	C35.664680,78.725594 36.861103,78.787422 38.823174,78.821411 
	C39.560047,79.017563 40.296921,79.213715 41.077549,80.002487 
	C42.043442,79.793762 43.009338,79.585037 44.727009,79.105057 
	C44.991188,79.139435 45.255363,79.173813 45.507057,79.166412 
	C45.507057,79.166412 45.545174,79.199852 46.350964,79.375595 
z"/>
<path fill="#171717" opacity="1.000000" stroke="none" 
	d="
M33.011917,72.868225 
	C32.975529,66.157585 32.939144,59.446949 33.434044,52.283363 
	C34.067997,50.742672 34.170658,49.654926 34.348145,48.245590 
	C34.539371,47.276180 34.655773,46.628357 35.074986,45.804558 
	C36.533134,43.073509 37.688469,40.518440 39.169827,37.858276 
	C45.920807,28.347439 58.456295,24.075773 70.333633,28.357437 
	C81.423401,32.355186 87.299248,40.949028 88.175125,52.904976 
	C87.052376,51.085117 86.318687,49.374367 85.565315,47.675949 
	C85.545631,47.688282 85.633133,47.780056 85.258194,47.848156 
	C84.632790,47.958862 84.382332,48.001465 84.044060,47.720196 
	C83.045555,46.572411 82.134880,45.748505 81.074440,44.605480 
	C78.626610,41.498158 76.328529,38.709949 73.987930,35.575882 
	C73.186684,34.895428 72.427971,34.560837 71.331970,34.156601 
	C69.685539,33.656425 68.376389,33.225895 66.986954,32.443474 
	C63.110828,29.820807 59.348782,28.209730 55.597992,32.783661 
	C54.869831,32.961628 54.440659,33.011459 53.874619,32.830475 
	C53.123638,32.947609 52.509533,33.295559 51.641441,33.845749 
	C50.476509,34.619503 49.565563,35.191017 48.309258,35.568977 
	C41.450283,38.907188 39.556141,45.313652 38.093262,51.821289 
	C37.915276,52.613075 39.998596,53.913189 41.436626,54.996902 
	C48.000942,55.382736 49.574177,56.805809 50.233345,63.128487 
	C50.086983,65.853218 50.356300,68.434387 50.595222,71.390984 
	C49.717960,73.516655 48.871094,75.266891 48.012699,77.010872 
	C48.001171,77.004608 48.017445,77.023903 47.633331,77.052048 
	C46.807270,77.633217 46.365322,78.186256 45.733437,78.720367 
	C45.543507,78.701447 45.245022,78.940498 45.245022,78.940498 
	C45.245022,78.940498 45.519543,79.208199 45.519543,79.208199 
	C45.255363,79.173813 44.991188,79.139435 44.179058,79.009186 
	C42.765335,79.078827 41.899567,79.244339 41.033794,79.409859 
	C40.296921,79.213715 39.560047,79.017563 38.539024,78.607018 
	C38.254875,78.392624 38.040989,77.943474 38.029228,77.612610 
	C37.081745,76.478165 36.146019,75.674583 34.988918,74.548920 
	C34.182335,73.773964 33.597126,73.321091 33.011917,72.868225 
M43.026180,60.452133 
	C42.538189,60.480541 42.050198,60.508949 40.756813,60.265312 
	C37.916965,60.623211 37.627045,62.284218 38.613472,65.262199 
	C38.600147,66.651451 38.586823,68.040710 38.200825,70.138680 
	C38.085804,72.878616 39.074005,74.214882 42.635712,73.031357 
	C43.442429,72.697960 44.249149,72.364563 45.800106,71.964020 
	C49.387695,67.166878 48.268074,61.504738 43.026180,60.452133 
z"/>
<path fill="#0D0D0D" opacity="1.000000" stroke="none" 
	d="
M85.584999,47.663616 
	C86.318687,49.374367 87.052376,51.085117 88.288315,53.360466 
	C88.815849,56.059788 89.033340,58.213276 88.827095,60.325386 
	C88.374519,64.960213 87.707413,69.574089 86.778915,74.170059 
	C84.229507,76.704292 82.029083,79.264999 79.912064,81.912827 
	C79.995468,81.999939 79.822769,81.830978 79.481918,81.833565 
	C78.498360,82.615143 77.855652,83.394142 76.986610,84.284706 
	C76.611847,84.475426 76.463409,84.554573 75.981308,84.499275 
	C74.038620,85.441139 72.429581,86.517441 70.820541,87.593750 
	C70.136024,87.741241 69.451508,87.888741 68.093033,87.935959 
	C66.612289,87.835106 65.805496,87.834534 64.725502,87.597153 
	C62.747707,87.156776 61.043121,86.953201 59.276325,86.501656 
	C59.252132,85.915421 59.290150,85.577148 59.620621,85.138969 
	C60.211414,84.310265 60.509758,83.581474 60.914055,82.619949 
	C61.004292,82.217476 60.988575,82.047722 60.972855,81.877975 
	C62.657978,81.821785 64.343102,81.765602 66.850548,81.772217 
	C73.767273,82.037209 75.497482,80.421669 73.964417,75.542770 
	C72.938339,73.794998 71.998222,72.384651 71.018127,70.528275 
	C71.015259,67.401138 71.052361,64.720039 71.436142,61.943344 
	C72.077110,60.802330 72.371399,59.756912 72.736084,58.761505 
	C72.806496,58.811508 72.715897,58.664471 73.078033,58.748962 
	C74.245766,57.817501 75.051361,56.801556 76.216583,55.626778 
	C83.865562,54.403210 83.865562,54.403210 83.259277,48.056328 
	C83.742592,48.089176 83.937233,48.066624 84.131882,48.044071 
	C84.382332,48.001465 84.632790,47.958862 85.217728,47.921684 
	C85.552200,47.927116 85.584999,47.663616 85.584999,47.663616 
M79.921867,59.861698 
	C75.547943,58.558170 75.990295,62.585899 74.896400,64.630211 
	C73.542542,67.160355 73.867462,69.605011 77.178963,71.677368 
	C78.449677,72.100967 79.720398,72.524567 81.291222,73.456589 
	C81.841141,72.940315 82.391068,72.424042 83.070671,71.478477 
	C83.070671,71.478477 83.329178,71.112045 84.030518,70.859177 
	C84.239281,68.189636 84.636108,65.512497 84.528862,62.855713 
	C84.500923,62.163578 82.901291,61.534889 81.375557,60.844143 
	C80.970772,60.699780 80.565979,60.555416 79.921867,59.861698 
z"/>
<path fill="#9C9C9C" opacity="1.000000" stroke="none" 
	d="
M87.127899,74.196526 
	C87.707413,69.574089 88.374519,64.960213 88.827095,60.325386 
	C89.033340,58.213276 88.815849,56.059788 88.677368,53.469578 
	C87.299248,40.949028 81.423401,32.355186 70.333633,28.357437 
	C58.456295,24.075773 45.920807,28.347439 38.948502,37.964340 
	C38.000744,38.453602 37.600334,38.731705 37.181229,38.773705 
	C37.162533,38.537594 37.087078,38.069946 37.087078,38.069946 
	C38.382084,31.830778 43.856216,29.562948 48.519131,27.233997 
	C62.832142,20.085186 77.088417,25.380354 85.512146,36.971218 
	C88.340683,40.863235 89.800018,46.233280 90.435173,51.116364 
	C91.262749,57.478680 90.560486,64.030464 90.687752,70.497353 
	C90.752892,73.808105 89.886520,76.363403 86.251770,77.409721 
	C86.331306,76.202759 86.729607,75.199646 87.127899,74.196526 
z"/>
<path fill="#B7B7B7" opacity="1.000000" stroke="none" 
	d="
M82.970619,48.000931 
	C83.865562,54.403210 83.865562,54.403210 75.889389,55.642712 
	C74.373672,56.766476 73.544785,57.715473 72.715897,58.664471 
	C72.715897,58.664471 72.806496,58.811508 72.383606,58.821026 
	C71.670303,59.900009 71.379883,60.969475 71.089462,62.038944 
	C71.052361,64.720039 71.015259,67.401138 70.933563,70.910538 
	C71.942772,73.119286 72.996574,74.499741 74.050369,75.880196 
	C75.497482,80.421669 73.767273,82.037209 67.266769,81.710205 
	C70.062172,78.774811 70.538109,76.162491 68.699844,71.760239 
	C67.335381,68.492638 69.115044,63.844387 69.710938,59.843407 
	C70.425087,55.048405 73.768906,53.547817 78.195297,53.056808 
	C80.457588,52.805862 80.436264,47.031986 78.274857,44.057774 
	C72.813690,36.542900 65.408829,33.168800 56.351933,35.060928 
	C52.741741,35.815155 49.537189,38.511021 45.955399,39.881760 
	C46.726749,38.214531 47.690681,36.988529 48.654617,35.762531 
	C49.565563,35.191017 50.476509,34.619503 51.929005,33.948898 
	C52.984196,33.586971 53.497841,33.324131 54.011486,33.061287 
	C54.440659,33.011459 54.869831,32.961628 55.985855,32.893936 
	C60.137550,32.849171 63.602398,32.822266 67.067245,32.795364 
	C68.376389,33.225895 69.685539,33.656425 71.418221,34.472015 
	C72.571320,35.211967 73.300888,35.566856 74.030449,35.921745 
	C76.328529,38.709949 78.626610,41.498158 81.005722,44.929611 
	C81.714706,46.382217 82.342667,47.191574 82.970619,48.000931 
z"/>
<path fill="#A4A4A4" opacity="1.000000" stroke="none" 
	d="
M48.024227,77.017136 
	C48.871094,75.266891 49.717960,73.516655 50.798134,71.079346 
	C50.903973,67.923157 50.776501,65.454041 50.649029,62.984924 
	C49.574177,56.805809 48.000942,55.382736 41.432571,54.650940 
	C41.059708,53.825878 41.093609,53.365967 41.127510,52.906055 
	C45.436916,53.575211 49.890308,53.486954 52.474644,58.315266 
	C54.630959,62.343903 54.431889,72.796272 50.787041,76.699966 
	C49.437904,76.979805 48.731068,76.998466 48.024227,77.017136 
z"/>
<path fill="#404040" opacity="1.000000" stroke="none" 
	d="
M41.045078,52.522007 
	C41.093609,53.365967 41.059708,53.825878 41.029861,54.631752 
	C39.998596,53.913189 37.915276,52.613075 38.093262,51.821289 
	C39.556141,45.313652 41.450283,38.907188 48.309258,35.568977 
	C47.690681,36.988529 46.726749,38.214531 45.641098,39.711788 
	C45.519382,39.983047 45.171040,40.269371 44.796913,40.578400 
	C44.275780,41.587891 44.128780,42.288357 43.981781,42.988819 
	C43.303440,44.120106 42.625103,45.251389 41.514771,46.819664 
	C41.056519,47.838581 41.030258,48.420513 41.003998,49.002441 
	C40.990215,50.047615 40.976429,51.092785 41.045078,52.522007 
z"/>
<path fill="#B5B5B5" opacity="1.000000" stroke="none" 
	d="
M76.314972,84.633713 
	C76.463409,84.554573 76.611847,84.475426 77.314240,84.280930 
	C78.519714,83.387383 79.171242,82.609177 79.822769,81.830978 
	C79.822769,81.830978 79.995468,81.999939 80.240356,81.885757 
	C81.584076,81.120789 82.682907,80.469994 83.781738,79.819206 
	C81.666924,84.321320 78.454811,87.511925 73.311806,87.960457 
	C74.252373,86.489754 75.283669,85.561729 76.314972,84.633713 
z"/>
<path fill="#B7B7B7" opacity="1.000000" stroke="none" 
	d="
M60.776093,81.590042 
	C60.988575,82.047722 61.004292,82.217476 60.568916,82.667023 
	C59.854603,83.710846 59.591393,84.474861 59.328175,85.238876 
	C59.290150,85.577148 59.252132,85.915421 59.174767,86.741898 
	C59.130920,87.403763 59.126427,87.577423 59.094566,88.023758 
	C59.057297,88.478874 59.047386,88.661308 59.037476,88.843750 
	C57.919403,87.605301 55.888489,86.377617 55.873745,85.126167 
	C55.843273,82.539795 57.314201,80.487846 60.776093,81.590042 
z"/>
<path fill="#666666" opacity="1.000000" stroke="none" 
	d="
M84.028366,79.633820 
	C82.682907,80.469994 81.584076,81.120789 80.156952,81.798645 
	C82.029083,79.264999 84.229507,76.704292 86.778915,74.170059 
	C86.729607,75.199646 86.331306,76.202759 85.925018,77.534363 
	C85.369675,78.391373 84.822327,78.919899 84.028366,79.633820 
z"/>
<path fill="#D3D3D3" opacity="1.000000" stroke="none" 
	d="
M32.723251,72.831604 
	C33.597126,73.321091 34.182335,73.773964 34.919235,74.893890 
	C36.060951,76.355118 37.050972,77.149300 38.040989,77.943474 
	C38.040989,77.943474 38.254875,78.392624 38.156204,78.620941 
	C36.861103,78.787422 35.664680,78.725594 34.468254,78.663773 
	C34.672310,76.401894 29.419590,76.030907 32.723251,72.831604 
z"/>
<path fill="#B5B5B5" opacity="1.000000" stroke="none" 
	d="
M59.228119,89.169991 
	C59.047386,88.661308 59.057297,88.478874 59.434425,88.142639 
	C61.534000,87.937210 63.266354,87.885582 64.998711,87.833954 
	C65.805496,87.834534 66.612289,87.835106 67.761185,88.051376 
	C65.743958,92.460442 62.629551,91.318832 59.228119,89.169991 
z"/>
<path fill="#D3D3D3" opacity="1.000000" stroke="none" 
	d="
M34.772171,45.980530 
	C34.655773,46.628357 34.539371,47.276180 34.149685,48.309570 
	C33.566212,48.972294 33.256027,49.249451 32.945847,49.526611 
	C29.723238,47.577721 30.577549,45.782379 33.579857,44.023907 
	C34.007671,43.995991 34.218475,44.156929 34.198181,44.418999 
	C34.375984,45.114223 34.574078,45.547375 34.772171,45.980530 
z"/>
<path fill="#666666" opacity="1.000000" stroke="none" 
	d="
M75.981308,84.499268 
	C75.283669,85.561729 74.252373,86.489754 73.110886,87.704834 
	C72.486275,88.005951 71.971848,88.020012 71.138977,87.813904 
	C72.429581,86.517441 74.038620,85.441139 75.981308,84.499268 
z"/>
<path fill="#D3D3D3" opacity="1.000000" stroke="none" 
	d="
M36.713497,38.105835 
	C37.087078,38.069946 37.162533,38.537594 36.959198,39.035881 
	C35.910069,41.075085 35.064270,42.616009 34.218475,44.156929 
	C34.218475,44.156929 34.007671,43.995991 33.901703,43.913521 
	C34.643791,41.934605 35.491856,40.038162 36.713497,38.105835 
z"/>
<path fill="#D3D3D3" opacity="1.000000" stroke="none" 
	d="
M41.055672,79.706177 
	C41.899567,79.244339 42.765335,79.078827 43.803169,79.144814 
	C43.009338,79.585037 42.043442,79.793762 41.055672,79.706177 
z"/>
<path fill="#D3D3D3" opacity="1.000000" stroke="none" 
	d="
M48.012699,77.010872 
	C48.731068,76.998466 49.437904,76.979805 50.495102,76.915459 
	C50.047234,77.784470 49.249004,78.699158 48.254715,79.051636 
	C48.044918,78.000916 48.031181,77.512413 48.017445,77.023903 
	C48.017445,77.023903 48.001171,77.004608 48.012699,77.010872 
z"/>
<path fill="#626262" opacity="1.000000" stroke="none" 
	d="
M32.771065,49.816383 
	C33.256027,49.249451 33.566212,48.972294 34.074860,48.631157 
	C34.170658,49.654926 34.067997,50.742672 33.512268,51.876183 
	C32.904900,51.316685 32.750595,50.711422 32.771065,49.816383 
z"/>
<path fill="#A4A4A4" opacity="1.000000" stroke="none" 
	d="
M47.633331,77.052048 
	C48.031181,77.512413 48.044918,78.000916 48.025215,78.857574 
	C47.444836,79.275673 46.897900,79.325638 45.975994,79.117981 
	C45.601025,78.860367 45.923370,78.739288 45.923370,78.739288 
	C46.365322,78.186256 46.807270,77.633217 47.633331,77.052048 
z"/>
<path fill="#B7B7B7" opacity="1.000000" stroke="none" 
	d="
M44.283783,42.866783 
	C44.128780,42.288357 44.275780,41.587891 44.693859,40.778927 
	C44.838554,41.361866 44.712170,42.053303 44.283783,42.866783 
z"/>
<path fill="#B7B7B7" opacity="1.000000" stroke="none" 
	d="
M41.263443,48.900181 
	C41.030258,48.420513 41.056519,47.838581 41.347794,47.115505 
	C41.582836,47.582211 41.552864,48.190067 41.263443,48.900181 
z"/>
<path fill="#D3D3D3" opacity="1.000000" stroke="none" 
	d="
M45.733437,78.720367 
	C45.923370,78.739288 45.601025,78.860367 45.573097,79.030106 
	C45.545174,79.199852 45.507057,79.166412 45.513298,79.187302 
	C45.519543,79.208199 45.245022,78.940498 45.245022,78.940498 
	C45.245022,78.940498 45.543507,78.701447 45.733437,78.720367 
z"/>
<path fill="#C0C0C0" opacity="1.000000" stroke="none" 
	d="
M45.055862,72.031166 
	C44.249149,72.364563 43.442429,72.697960 42.142315,72.795433 
	C40.623779,71.516327 39.598637,70.473145 38.573494,69.429962 
	C38.586823,68.040710 38.600147,66.651451 38.852753,64.748657 
	C39.915428,63.002537 40.738819,61.769951 41.562210,60.537361 
	C42.050198,60.508949 42.538189,60.480541 43.464680,60.783020 
	C44.287407,64.752991 44.671635,68.392082 45.055862,72.031166 
z"/>
<path fill="#454545" opacity="1.000000" stroke="none" 
	d="
M45.427986,71.997589 
	C44.671635,68.392082 44.287407,64.752991 43.709084,60.760841 
	C48.268074,61.504738 49.387695,67.166878 45.427986,71.997589 
z"/>
<path fill="#404040" opacity="1.000000" stroke="none" 
	d="
M66.986954,32.443474 
	C63.602398,32.822266 60.137550,32.849171 56.284843,32.765800 
	C59.348782,28.209730 63.110828,29.820807 66.986954,32.443474 
z"/>
<path fill="#404040" opacity="1.000000" stroke="none" 
	d="
M50.233345,63.128487 
	C50.776501,65.454041 50.903973,67.923157 50.828529,70.703918 
	C50.356300,68.434387 50.086983,65.853218 50.233345,63.128487 
z"/>
<path fill="#8C8C8C" opacity="1.000000" stroke="none" 
	d="
M34.198181,44.418999 
	C35.064270,42.616009 35.910069,41.075085 36.977890,39.271988 
	C37.600334,38.731705 38.000744,38.453602 38.622482,38.069435 
	C37.688469,40.518440 36.533134,43.073509 35.074986,45.804558 
	C34.574078,45.547375 34.375984,45.114223 34.198181,44.418999 
z"/>
<path fill="#454545" opacity="1.000000" stroke="none" 
	d="
M38.387161,69.784317 
	C39.598637,70.473145 40.623779,71.516327 41.814976,72.834625 
	C39.074005,74.214882 38.085804,72.878616 38.387161,69.784317 
z"/>
<path fill="#454545" opacity="1.000000" stroke="none" 
	d="
M41.159512,60.401337 
	C40.738819,61.769951 39.915428,63.002537 38.824780,64.402008 
	C37.627045,62.284218 37.916965,60.623211 41.159512,60.401337 
z"/>
<path fill="#404040" opacity="1.000000" stroke="none" 
	d="
M83.259277,48.056328 
	C82.342667,47.191574 81.714706,46.382217 81.155472,45.248726 
	C82.134880,45.748505 83.045555,46.572411 84.044060,47.720196 
	C83.937233,48.066624 83.742592,48.089176 83.259277,48.056328 
z"/>
<path fill="#626262" opacity="1.000000" stroke="none" 
	d="
M38.029228,77.612610 
	C37.050972,77.149300 36.060951,76.355118 35.140610,75.215973 
	C36.146019,75.674583 37.081745,76.478165 38.029228,77.612610 
z"/>
<path fill="#404040" opacity="1.000000" stroke="none" 
	d="
M73.987930,35.575882 
	C73.300888,35.566856 72.571320,35.211967 71.755508,34.541656 
	C72.427971,34.560837 73.186684,34.895428 73.987930,35.575882 
z"/>
<path fill="#404040" opacity="1.000000" stroke="none" 
	d="
M53.874619,32.830475 
	C53.497841,33.324131 52.984196,33.586971 52.182991,33.746662 
	C52.509533,33.295559 53.123638,32.947609 53.874619,32.830475 
z"/>
<path fill="#9C9C9C" opacity="1.000000" stroke="none" 
	d="
M85.565315,47.675949 
	C85.584999,47.663616 85.552200,47.927116 85.592667,47.853584 
	C85.633133,47.780056 85.545631,47.688282 85.565315,47.675949 
z"/>
<path fill="#C9C9C9" opacity="1.000000" stroke="none" 
	d="
M83.329178,71.112045 
	C83.329178,71.112045 83.070671,71.478477 82.702461,71.665771 
	C81.886536,72.218102 81.438828,72.583138 80.991112,72.948166 
	C79.720398,72.524567 78.449677,72.100967 77.131210,70.947258 
	C77.829811,66.860710 75.124939,62.421066 80.161194,60.411053 
	C80.565979,60.555416 80.970772,60.699780 81.811310,61.263508 
	C82.607765,64.825928 82.968468,67.968987 83.329178,71.112045 
z"/>
<path fill="#434343" opacity="1.000000" stroke="none" 
	d="
M80.041534,60.136375 
	C75.124939,62.421066 77.829811,66.860710 76.938034,70.648132 
	C73.867462,69.605011 73.542542,67.160355 74.896400,64.630211 
	C75.990295,62.585899 75.547943,58.558170 80.041534,60.136375 
z"/>
<path fill="#434343" opacity="1.000000" stroke="none" 
	d="
M83.679848,70.985611 
	C82.968468,67.968987 82.607765,64.825928 82.135300,61.279968 
	C82.901291,61.534889 84.500923,62.163578 84.528862,62.855713 
	C84.636108,65.512497 84.239281,68.189636 83.679848,70.985611 
z"/>
<path fill="#404040" opacity="1.000000" stroke="none" 
	d="
M73.964417,75.542770 
	C72.996574,74.499741 71.942772,73.119286 70.973541,71.356567 
	C71.998222,72.384651 72.938339,73.794998 73.964417,75.542770 
z"/>
<path fill="#666666" opacity="1.000000" stroke="none" 
	d="
M64.725502,87.597153 
	C63.266354,87.885582 61.534000,87.937210 59.461784,87.869957 
	C59.126427,87.577423 59.130920,87.403763 59.236977,86.989868 
	C61.043121,86.953201 62.747707,87.156776 64.725502,87.597153 
z"/>
<path fill="#404040" opacity="1.000000" stroke="none" 
	d="
M73.078033,58.748962 
	C73.544785,57.715473 74.373672,56.766476 75.529755,55.801544 
	C75.051361,56.801556 74.245766,57.817501 73.078033,58.748962 
z"/>
<path fill="#404040" opacity="1.000000" stroke="none" 
	d="
M71.436142,61.943344 
	C71.379883,60.969475 71.670303,59.900009 72.313202,58.771019 
	C72.371399,59.756912 72.077110,60.802330 71.436142,61.943344 
z"/>
<path fill="#666666" opacity="1.000000" stroke="none" 
	d="
M79.481918,81.833565 
	C79.171242,82.609177 78.519714,83.387383 77.540558,84.169357 
	C77.855652,83.394142 78.498360,82.615143 79.481918,81.833565 
z"/>
<path fill="#434343" opacity="1.000000" stroke="none" 
	d="
M81.141167,73.202377 
	C81.438828,72.583138 81.886536,72.218102 82.637619,71.880417 
	C82.391068,72.424042 81.841141,72.940315 81.141167,73.202377 
z"/>
<path fill="#666666" opacity="1.000000" stroke="none" 
	d="
M59.620621,85.138969 
	C59.591393,84.474861 59.854603,83.710846 60.462959,82.899750 
	C60.509758,83.581474 60.211414,84.310265 59.620621,85.138969 
z"/>
</svg>