<svg version="1.1" id="Layer_1" xmlns="http://www.w3.org/2000/svg" xmlns:xlink="http://www.w3.org/1999/xlink" x="0px" y="0px"
	 width="100%" viewBox="0 0 764 950" enable-background="new 0 0 764 950" xml:space="preserve">
<path fill="#F6F6F6" opacity="1.000000" stroke="none" 
	d="
M765.000000,337.000000 
	C765.000000,541.999939 765.000000,746.499817 765.000000,950.999817 
	C510.333527,950.999878 255.667053,950.999878 1.000431,950.999939 
	C1.000287,634.333679 1.000287,317.667328 1.000144,1.000728 
	C255.666245,1.000486 510.332489,1.000486 764.999390,1.000243 
	C765.000000,112.833336 765.000000,224.666672 765.000000,337.000000 
M648.499939,925.797058 
	C670.830933,925.796997 693.161987,925.800537 715.492981,925.795349 
	C726.032654,925.792847 729.302490,922.571106 729.302612,912.162415 
	C729.305176,652.513733 729.305359,392.865021 729.302063,133.216324 
	C729.301941,123.398087 725.875244,119.940765 716.158447,119.939651 
	C668.995056,119.934235 621.831604,119.937065 574.668213,119.936981 
	C572.703552,119.936981 570.738892,119.936981 568.970703,119.936981 
	C568.653748,119.109657 568.434509,118.802795 568.433044,118.494881 
	C568.392090,109.997002 568.375854,101.499016 568.350037,93.001060 
	C568.320557,83.313469 564.738525,79.681129 555.135498,79.676552 
	C529.137329,79.664169 503.138489,79.582726 477.141602,79.768082 
	C473.227722,79.795990 471.380066,78.725616 469.826874,74.984795 
	C455.704498,40.972286 423.086731,19.157581 386.934448,19.225288 
	C350.703247,19.293144 318.145691,41.152813 304.083008,75.102394 
	C302.655273,78.549225 300.999451,79.793465 297.205750,79.767464 
	C270.875458,79.586990 244.541901,79.541649 218.213745,79.838982 
	C214.923111,79.876144 211.031891,81.475090 208.585480,83.657860 
	C206.733459,85.310295 206.124710,89.025772 206.032455,91.858009 
	C205.731094,101.110023 205.919434,110.377983 205.919434,119.936951 
	C203.401230,119.936951 201.588013,119.936943 199.774796,119.936943 
	C152.778046,119.936966 105.781303,119.935692 58.784554,119.937981 
	C47.846821,119.938507 44.693855,123.028992 44.693775,133.768921 
	C44.691872,393.250946 44.692196,652.732971 44.693760,912.215027 
	C44.693768,913.548035 44.629463,914.888672 44.744904,916.212708 
	C45.195286,921.378601 48.879311,925.189758 54.045223,925.715637 
	C56.025887,925.917297 58.041077,925.794861 60.040535,925.794861 
	C255.860321,925.797180 451.680084,925.797058 648.499939,925.797058 
z"/>
<path fill="#050505" opacity="1.000000" stroke="none" 
	d="
M647.999878,925.797058 
	C451.680084,925.797058 255.860321,925.797180 60.040535,925.794861 
	C58.041077,925.794861 56.025887,925.917297 54.045223,925.715637 
	C48.879311,925.189758 45.195286,921.378601 44.744904,916.212708 
	C44.629463,914.888672 44.693768,913.548035 44.693760,912.215027 
	C44.692196,652.732971 44.691872,393.250946 44.693775,133.768921 
	C44.693855,123.028992 47.846821,119.938507 58.784554,119.937981 
	C105.781303,119.935692 152.778046,119.936966 199.774796,119.936943 
	C201.588013,119.936943 203.401230,119.936951 205.919434,119.936951 
	C205.919434,110.377983 205.731094,101.110023 206.032455,91.858009 
	C206.124710,89.025772 206.733459,85.310295 208.585480,83.657860 
	C211.031891,81.475090 214.923111,79.876144 218.213745,79.838982 
	C244.541901,79.541649 270.875458,79.586990 297.205750,79.767464 
	C300.999451,79.793465 302.655273,78.549225 304.083008,75.102394 
	C318.145691,41.152813 350.703247,19.293144 386.934448,19.225288 
	C423.086731,19.157581 455.704498,40.972286 469.826874,74.984795 
	C471.380066,78.725616 473.227722,79.795990 477.141602,79.768082 
	C503.138489,79.582726 529.137329,79.664169 555.135498,79.676552 
	C564.738525,79.681129 568.320557,83.313469 568.350037,93.001060 
	C568.375854,101.499016 568.392090,109.997002 568.433044,118.494881 
	C568.434509,118.802795 568.653748,119.109657 568.970703,119.936981 
	C570.738892,119.936981 572.703552,119.936981 574.668213,119.936981 
	C621.831604,119.937065 668.995056,119.934235 716.158447,119.939651 
	C725.875244,119.940765 729.301941,123.398087 729.302063,133.216324 
	C729.305359,392.865021 729.305176,652.513733 729.302612,912.162415 
	C729.302490,922.571106 726.032654,925.792847 715.492981,925.795349 
	C693.161987,925.800537 670.830933,925.796997 647.999878,925.797058 
M171.499512,905.722656 
	C350.590912,905.722656 529.682312,905.722656 708.885803,905.722656 
	C708.885803,650.284485 708.885803,395.422455 708.885803,140.551514 
	C661.951172,140.551514 615.384949,140.551514 568.353027,140.551514 
	C568.353027,142.698517 568.353088,144.501129 568.353027,146.303757 
	C568.352417,160.302719 568.376892,174.301743 568.341919,188.300613 
	C568.320984,196.674759 564.473511,200.634262 556.174622,200.635895 
	C443.349640,200.658127 330.524689,200.657822 217.699707,200.634872 
	C209.909302,200.633286 205.969589,196.702240 205.936356,188.968124 
	C205.874756,174.636108 205.916916,160.303665 205.915909,145.971390 
	C205.915787,144.200638 205.915894,142.429886 205.915894,140.523758 
	C158.545990,140.523758 111.817307,140.523758 65.135010,140.523758 
	C65.135010,395.717712 65.135010,650.591919 65.135010,905.722717 
	C100.521919,905.722717 135.510696,905.722717 171.499512,905.722656 
M412.499634,180.547501 
	C457.569000,180.547501 502.638367,180.547501 547.675476,180.547501 
	C547.675476,153.295959 547.675476,126.746330 547.675476,99.976677 
	C520.660339,99.976677 494.014404,99.986183 467.368500,99.970627 
	C459.830353,99.966225 456.956848,97.773499 454.785400,90.521873 
	C445.585968,59.800392 418.553375,39.293571 387.243713,39.284935 
	C355.511414,39.276184 328.373749,59.716946 319.193024,90.542351 
	C317.045593,97.752739 314.131012,99.966049 306.587097,99.970856 
	C281.593567,99.986771 256.600037,99.977470 231.606522,99.977859 
	C229.835876,99.977882 228.065231,99.977875 226.261810,99.977875 
	C226.261810,127.142738 226.261810,153.714264 226.261810,180.547577 
	C288.215637,180.547577 349.857605,180.547577 412.499634,180.547501 
z"/>
<path fill="#F6F6F6" opacity="1.000000" stroke="none" 
	d="
M170.999496,905.722656 
	C135.510696,905.722717 100.521919,905.722717 65.135010,905.722717 
	C65.135010,650.591919 65.135010,395.717712 65.135010,140.523758 
	C111.817307,140.523758 158.545990,140.523758 205.915894,140.523758 
	C205.915894,142.429886 205.915787,144.200638 205.915909,145.971390 
	C205.916916,160.303665 205.874756,174.636108 205.936356,188.968124 
	C205.969589,196.702240 209.909302,200.633286 217.699707,200.634872 
	C330.524689,200.657822 443.349640,200.658127 556.174622,200.635895 
	C564.473511,200.634262 568.320984,196.674759 568.341919,188.300613 
	C568.376892,174.301743 568.352417,160.302719 568.353027,146.303757 
	C568.353088,144.501129 568.353027,142.698517 568.353027,140.551514 
	C615.384949,140.551514 661.951172,140.551514 708.885803,140.551514 
	C708.885803,395.422455 708.885803,650.284485 708.885803,905.722656 
	C529.682312,905.722656 350.590912,905.722656 170.999496,905.722656 
M326.599884,761.500793 
	C326.599365,756.667847 326.621277,751.834839 326.593536,747.002014 
	C326.541992,738.019287 322.833191,734.339844 313.742554,734.338074 
	C255.245300,734.326599 196.748032,734.327820 138.250778,734.336853 
	C128.810196,734.338318 125.179054,737.919189 125.176239,747.259277 
	C125.162689,792.257141 125.165062,837.255066 125.174263,882.252930 
	C125.176239,891.924438 128.695190,895.387268 138.518646,895.388550 
	C196.682587,895.396179 254.846527,895.395142 313.010468,895.390320 
	C323.181885,895.389465 326.593262,892.032104 326.595581,881.994873 
	C326.604736,842.163391 326.599640,802.331970 326.599884,761.500793 
M125.174789,286.499939 
	C125.175056,310.824554 125.157219,335.149231 125.185371,359.473816 
	C125.195236,368.001556 129.170654,371.916565 137.779877,371.918335 
	C196.592041,371.930450 255.404205,371.931885 314.216370,371.917053 
	C322.526886,371.914948 326.569580,367.975922 326.575317,359.743683 
	C326.607117,314.093445 326.605286,268.443237 326.577393,222.793015 
	C326.572296,214.476822 322.659821,210.625168 314.276550,210.622513 
	C255.464386,210.603897 196.652222,210.603485 137.840057,210.622192 
	C128.974579,210.625015 125.187920,214.518738 125.180656,223.522186 
	C125.164001,244.181396 125.175018,264.840637 125.174789,286.499939 
M153.500183,653.873901 
	C206.991119,653.873535 260.482056,653.879578 313.972992,653.866516 
	C322.703369,653.864380 326.531219,650.090149 326.589905,641.485901 
	C326.628510,635.820496 326.652893,630.153809 326.580627,624.489014 
	C326.498657,618.064087 322.488007,613.611694 316.787537,613.461548 
	C311.002625,613.309204 306.659058,617.950989 306.480621,624.567810 
	C306.401245,627.510986 306.467224,630.458008 306.467224,633.395386 
	C252.396118,633.395386 199.020065,633.395386 145.441040,633.395386 
	C145.441040,579.732971 145.441040,526.472412 145.441040,472.537231 
	C147.579437,472.537231 149.525116,472.537262 151.470795,472.537231 
	C185.464996,472.536865 219.459473,472.594543 253.452927,472.435211 
	C256.443573,472.421234 259.839691,471.635223 262.317749,470.059906 
	C266.001434,467.718201 266.966431,463.688202 265.639526,459.419403 
	C264.190033,454.756256 260.583801,452.428864 254.789352,452.425873 
	C215.962646,452.405731 177.135925,452.408905 138.309219,452.421661 
	C128.542114,452.424896 125.175545,455.845184 125.173546,465.724365 
	C125.165634,504.717712 125.169975,543.711060 125.169945,582.704407 
	C125.169930,602.201111 125.154778,621.697754 125.177406,641.194458 
	C125.187813,650.159973 128.940460,653.841187 138.002838,653.870544 
	C142.835281,653.886230 147.667847,653.873718 153.500183,653.873901 
M639.803284,281.211151 
	C559.331543,281.187317 478.859741,281.152496 398.387970,281.159271 
	C391.507904,281.159851 387.143616,285.188324 387.137909,291.192932 
	C387.132172,297.214813 391.448090,301.146484 398.406982,301.148865 
	C478.046295,301.176025 557.685608,301.174255 637.324951,301.152161 
	C643.805054,301.150360 647.707214,298.182922 648.638977,292.840729 
	C649.544189,287.650665 646.731934,283.604919 639.803284,281.211151 
M643.730591,544.434143 
	C640.971436,543.988770 638.213013,543.160522 635.453003,543.155212 
	C592.809509,543.073059 550.165771,543.097656 507.522064,543.097778 
	C471.208282,543.097839 434.894501,543.078918 398.580780,543.115540 
	C391.591461,543.122620 387.223480,546.982300 387.135559,552.947632 
	C387.048309,558.866577 391.550995,563.079529 398.291534,563.081848 
	C478.081879,563.109192 557.872192,563.093018 637.662537,563.114990 
	C642.473328,563.116333 646.156494,561.337463 647.960815,556.758240 
	C649.849548,551.965027 648.444336,547.968140 643.730591,544.434143 
M583.500000,825.049500 
	C601.663940,825.048157 619.828430,825.126892 637.991638,825.010559 
	C646.589417,824.955505 651.410950,816.865967 647.290283,809.756775 
	C644.768250,805.405701 640.701294,804.763977 636.108948,804.767151 
	C557.287537,804.821228 478.466156,804.806030 399.644745,804.807434 
	C398.645081,804.807434 397.641846,804.775269 396.646332,804.844604 
	C392.170654,805.156311 389.222443,807.492249 387.779144,811.708984 
	C385.271271,819.035889 390.287872,825.035217 399.027771,825.038086 
	C460.185181,825.057922 521.342590,825.049133 583.500000,825.049500 
M322.199310,474.628967 
	C302.730743,502.756622 283.262207,530.884277 263.697754,559.150513 
	C246.526917,547.831116 229.996048,536.916443 213.437363,526.044128 
	C211.780334,524.956177 210.050583,523.815308 208.187576,523.237549 
	C203.775330,521.869263 198.720154,524.214294 196.778580,528.221375 
	C194.536804,532.848022 195.977493,538.127502 200.702713,541.307739 
	C220.320480,554.511353 239.964645,567.676514 259.675323,580.740784 
	C265.700623,584.734314 271.223938,583.419861 275.566925,577.155151 
	C305.078217,534.585510 334.558380,491.994232 364.024841,449.393494 
	C367.988525,443.663086 367.070160,437.411743 361.856476,433.613739 
	C357.043610,430.107697 352.083588,431.542603 347.653351,437.896942 
	C339.270721,449.920166 330.960297,461.993744 322.199310,474.628967 
z"/>
<path fill="#F5F5F5" opacity="1.000000" stroke="none" 
	d="
M411.999634,180.547546 
	C349.857605,180.547577 288.215637,180.547577 226.261810,180.547577 
	C226.261810,153.714264 226.261810,127.142738 226.261810,99.977875 
	C228.065231,99.977875 229.835876,99.977882 231.606522,99.977859 
	C256.600037,99.977470 281.593567,99.986771 306.587097,99.970856 
	C314.131012,99.966049 317.045593,97.752739 319.193024,90.542351 
	C328.373749,59.716946 355.511414,39.276184 387.243713,39.284935 
	C418.553375,39.293571 445.585968,59.800392 454.785400,90.521873 
	C456.956848,97.773499 459.830353,99.966225 467.368500,99.970627 
	C494.014404,99.986183 520.660339,99.976677 547.675476,99.976677 
	C547.675476,126.746330 547.675476,153.295959 547.675476,180.547501 
	C502.638367,180.547501 457.569000,180.547501 411.999634,180.547546 
z"/>
<path fill="#080808" opacity="1.000000" stroke="none" 
	d="
M326.599854,762.000610 
	C326.599640,802.331970 326.604736,842.163391 326.595581,881.994873 
	C326.593262,892.032104 323.181885,895.389465 313.010468,895.390320 
	C254.846527,895.395142 196.682587,895.396179 138.518646,895.388550 
	C128.695190,895.387268 125.176239,891.924438 125.174263,882.252930 
	C125.165062,837.255066 125.162689,792.257141 125.176239,747.259277 
	C125.179054,737.919189 128.810196,734.338318 138.250778,734.336853 
	C196.748032,734.327820 255.245300,734.326599 313.742554,734.338074 
	C322.833191,734.339844 326.541992,738.019287 326.593536,747.002014 
	C326.621277,751.834839 326.599365,756.667847 326.599854,762.000610 
M306.465607,777.500366 
	C306.465607,769.907959 306.465607,762.315613 306.465607,754.686646 
	C252.382767,754.686646 199.101929,754.686646 145.651855,754.686646 
	C145.651855,794.958496 145.651855,834.974670 145.651855,874.887695 
	C199.471344,874.887695 252.868301,874.887695 306.465668,874.887695 
	C306.465668,842.489990 306.465668,810.495239 306.465607,777.500366 
z"/>
<path fill="#060606" opacity="1.000000" stroke="none" 
	d="
M125.174789,285.999908 
	C125.175018,264.840637 125.164001,244.181396 125.180656,223.522186 
	C125.187920,214.518738 128.974579,210.625015 137.840057,210.622192 
	C196.652222,210.603485 255.464386,210.603897 314.276550,210.622513 
	C322.659821,210.625168 326.572296,214.476822 326.577393,222.793015 
	C326.605286,268.443237 326.607117,314.093445 326.575317,359.743683 
	C326.569580,367.975922 322.526886,371.914948 314.216370,371.917053 
	C255.404205,371.931885 196.592041,371.930450 137.779877,371.918335 
	C129.170654,371.916565 125.195236,368.001556 125.185371,359.473816 
	C125.157219,335.149231 125.175056,310.824554 125.174789,285.999908 
M145.223099,248.502930 
	C145.223099,282.734253 145.223099,316.965576 145.223099,351.292511 
	C199.356766,351.292511 252.608200,351.292511 306.155212,351.292511 
	C306.155212,311.137726 306.155212,271.262299 306.155212,231.286621 
	C252.445374,231.286621 199.055542,231.286621 145.223099,231.286621 
	C145.223099,236.906479 145.223099,242.205780 145.223099,248.502930 
z"/>
<path fill="#070707" opacity="1.000000" stroke="none" 
	d="
M153.000275,653.873901 
	C147.667847,653.873718 142.835281,653.886230 138.002838,653.870544 
	C128.940460,653.841187 125.187813,650.159973 125.177406,641.194458 
	C125.154778,621.697754 125.169930,602.201111 125.169945,582.704407 
	C125.169975,543.711060 125.165634,504.717712 125.173546,465.724365 
	C125.175545,455.845184 128.542114,452.424896 138.309219,452.421661 
	C177.135925,452.408905 215.962646,452.405731 254.789352,452.425873 
	C260.583801,452.428864 264.190033,454.756256 265.639526,459.419403 
	C266.966431,463.688202 266.001434,467.718201 262.317749,470.059906 
	C259.839691,471.635223 256.443573,472.421234 253.452927,472.435211 
	C219.459473,472.594543 185.464996,472.536865 151.470795,472.537231 
	C149.525116,472.537262 147.579437,472.537231 145.441040,472.537231 
	C145.441040,526.472412 145.441040,579.732971 145.441040,633.395386 
	C199.020065,633.395386 252.396118,633.395386 306.467224,633.395386 
	C306.467224,630.458008 306.401245,627.510986 306.480621,624.567810 
	C306.659058,617.950989 311.002625,613.309204 316.787537,613.461548 
	C322.488007,613.611694 326.498657,618.064087 326.580627,624.489014 
	C326.652893,630.153809 326.628510,635.820496 326.589905,641.485901 
	C326.531219,650.090149 322.703369,653.864380 313.972992,653.866516 
	C260.482056,653.879578 206.991119,653.873535 153.000275,653.873901 
z"/>
<path fill="#050505" opacity="1.000000" stroke="none" 
	d="
M640.222778,281.273743 
	C646.731934,283.604919 649.544189,287.650665 648.638977,292.840729 
	C647.707214,298.182922 643.805054,301.150360 637.324951,301.152161 
	C557.685608,301.174255 478.046295,301.176025 398.406982,301.148865 
	C391.448090,301.146484 387.132172,297.214813 387.137909,291.192932 
	C387.143616,285.188324 391.507904,281.159851 398.387970,281.159271 
	C478.859741,281.152496 559.331543,281.187317 640.222778,281.273743 
z"/>
<path fill="#040404" opacity="1.000000" stroke="none" 
	d="
M644.058960,544.648804 
	C648.444336,547.968140 649.849548,551.965027 647.960815,556.758240 
	C646.156494,561.337463 642.473328,563.116333 637.662537,563.114990 
	C557.872192,563.093018 478.081879,563.109192 398.291534,563.081848 
	C391.550995,563.079529 387.048309,558.866577 387.135559,552.947632 
	C387.223480,546.982300 391.591461,543.122620 398.580780,543.115540 
	C434.894501,543.078918 471.208282,543.097839 507.522064,543.097778 
	C550.165771,543.097656 592.809509,543.073059 635.453003,543.155212 
	C638.213013,543.160522 640.971436,543.988770 644.058960,544.648804 
z"/>
<path fill="#020202" opacity="1.000000" stroke="none" 
	d="
M583.000000,825.049500 
	C521.342590,825.049133 460.185181,825.057922 399.027771,825.038086 
	C390.287872,825.035217 385.271271,819.035889 387.779144,811.708984 
	C389.222443,807.492249 392.170654,805.156311 396.646332,804.844604 
	C397.641846,804.775269 398.645081,804.807434 399.644745,804.807434 
	C478.466156,804.806030 557.287537,804.821228 636.108948,804.767151 
	C640.701294,804.763977 644.768250,805.405701 647.290283,809.756775 
	C651.410950,816.865967 646.589417,824.955505 637.991638,825.010559 
	C619.828430,825.126892 601.663940,825.048157 583.000000,825.049500 
z"/>
<path fill="#060606" opacity="1.000000" stroke="none" 
	d="
M322.409607,474.337708 
	C330.960297,461.993744 339.270721,449.920166 347.653351,437.896942 
	C352.083588,431.542603 357.043610,430.107697 361.856476,433.613739 
	C367.070160,437.411743 367.988525,443.663086 364.024841,449.393494 
	C334.558380,491.994232 305.078217,534.585510 275.566925,577.155151 
	C271.223938,583.419861 265.700623,584.734314 259.675323,580.740784 
	C239.964645,567.676514 220.320480,554.511353 200.702713,541.307739 
	C195.977493,538.127502 194.536804,532.848022 196.778580,528.221375 
	C198.720154,524.214294 203.775330,521.869263 208.187576,523.237549 
	C210.050583,523.815308 211.780334,524.956177 213.437363,526.044128 
	C229.996048,536.916443 246.526917,547.831116 263.697754,559.150513 
	C283.262207,530.884277 302.730743,502.756622 322.409607,474.337708 
z"/>
<path fill="#F5F5F5" opacity="1.000000" stroke="none" 
	d="
M306.465637,778.000366 
	C306.465668,810.495239 306.465668,842.489990 306.465668,874.887695 
	C252.868301,874.887695 199.471344,874.887695 145.651855,874.887695 
	C145.651855,834.974670 145.651855,794.958496 145.651855,754.686646 
	C199.101929,754.686646 252.382767,754.686646 306.465607,754.686646 
	C306.465607,762.315613 306.465607,769.907959 306.465637,778.000366 
z"/>
<path fill="#F5F5F5" opacity="1.000000" stroke="none" 
	d="
M145.223099,248.003998 
	C145.223099,242.205780 145.223099,236.906479 145.223099,231.286621 
	C199.055542,231.286621 252.445374,231.286621 306.155212,231.286621 
	C306.155212,271.262299 306.155212,311.137726 306.155212,351.292511 
	C252.608200,351.292511 199.356766,351.292511 145.223099,351.292511 
	C145.223099,316.965576 145.223099,282.734253 145.223099,248.003998 
z"/>
</svg>